<svg xmlns="http://www.w3.org/2000/svg" viewBox="0 0 580 420">
  <defs>
    <clipPath id="a">
      <path fill="none" d="M0-7.56h592V420H0z"/>
    </clipPath>
  </defs>
  <g clip-path="url(#a)" data-name="Layer 1" style="isolation:isolate">
    <path fill="#e0e0e0" d="M479.87 386.23h-20.78c-14 0-18.11-18.86-18.11-26.58v-66.22c0-19.3 12.47-25.54 21.08-25.54h18.64c9.89 0 19.66 8.91 19.66 24.35v66.22c0 18.41-11.88 27.77-20.49 27.77z"/>
    <circle cx="470.67" cy="362.03" r="6.24" fill="#a7a9ac"/>
    <path fill="#82b140" d="M541.65 219h-74c-2.65 0-9.47-.15-9.47-.15s-.18-6.85-.18-9.47V73.82h83.62a9.65 9.65 0 0 1 9.62 9.62v126a9.65 9.65 0 0 1-9.59 9.56z"/>
    <path d="M533.45 71.11h5.35v149.67h-5.35zm-66.09 148.25h8.02v4.75h-8.02zm92.84 169.41a82.47 82.47 0 0 0 3.65-12.43c2-10.27 2.45-20.64 0-30.89-.8-3.28-2.59-6.31-3.75-9.51a15.74 15.74 0 0 1-.84-4.55c-.06-1.29-.08-3-.09-4.29v-.1c0-1.29 0-2.87.09-4.16a15.74 15.74 0 0 1 .84-4.55c1.16-3.21 3-6.23 3.75-9.51 2.49-10.25 2.09-20.62 0-30.89a82.48 82.48 0 0 0-3.65-12.43c-1.27-3.44-4.68-3.78-7.28-1.23a5.19 5.19 0 0 1-3.07 1.17c-9.17.65-18.43.93-25.53 7.84a49.66 49.66 0 0 0-4.78-4.14 2.73 2.73 0 0 0-4.37 1.39c-1.07 3.29.37 5.39 3.21 7.41a24.63 24.63 0 0 1 3.35 2.77c0 .5-.5 2-.63 3.61a68.6 68.6 0 0 0 0 17.43c.28 3 1.23 7.76 2.77 10 2.35 3.79 10.55 6.76 16.07 8.9 3.23 1.25 4.73 3.29 4.66 6.34s0 .09 0 .14v.14c.07 3.06-1.43 5.09-4.66 6.34-5.52 2.13-13.72 5.11-16.07 8.9-1.53 2.26-2.49 7-2.77 10a68.6 68.6 0 0 0 0 17.43c.13 1.57.59 3.11.63 3.61a24.63 24.63 0 0 1-3.35 2.77c-2.84 2-4.28 4.12-3.21 7.41a2.73 2.73 0 0 0 4.37 1.39 49.66 49.66 0 0 0 4.78-4.14c7.1 6.91 16.36 7.2 25.53 7.84a5.19 5.19 0 0 1 3.07 1.17c2.61 2.6 6.01 2.26 7.28-1.18zm-32.84-112.18a15.05 15.05 0 0 1 7.46-4.7 33.81 33.81 0 0 1 15.75-1.62c2.42.38 3.23 1.44 2.71 4.05-1.45 7.24-2.66 14.53-3.83 21.82-.71 4.44-1.15 8.92-1.74 13.38a6.45 6.45 0 0 1-1.08 2.76c-.9-15.28-7.93-25.49-19.27-35.69zm8.64 38.33c-6.64-3.13-9.55-4.62-10.91-12.56-1.24-7.26-.11-19.83.09-19.66 7 5.88 13.79 11.1 15.1 20.52.64 4.61 1.49 9.2 2.36 14.53-2.52-1.07-4.64-1.87-6.64-2.83zm14.1 4.16l8.24-41.19.85-.09a70.31 70.31 0 0 1 2.12 7.92c1.42 9.4 1.33 18.71-2.92 27.5-1.59 3.25-3.39 6.48-8.32 5.86zm-1.83 8c.56-1.43.86-2.69 1.44-3.88.65.34 2.29 1.32 2.47 2.14a5.93 5.93 0 0 1 .2 1.63 6.63 6.63 0 0 1-.21 1.93c-.18.81-1.82 1.79-2.47 2.14a41.16 41.16 0 0 1-1.46-3.95zm10.1 13.92c4.25 8.79 4.33 18.1 2.92 27.5a70.32 70.32 0 0 1-2.12 7.92l-.85-.09-8.24-41.19c4.92-.59 6.72 2.64 8.29 5.86zm-33.3 10.86c1.35-7.95 4.27-9.43 10.91-12.56 2-1 4.14-1.77 6.63-2.82-.87 5.33-1.71 9.91-2.36 14.53-1.31 9.42-8.06 14.64-15.1 20.52-.15.2-1.32-12.37-.08-19.63zm9.75 30.46a15.06 15.06 0 0 1-7.46-4.7c11.34-10.2 18.37-20.41 19.27-35.69a6.45 6.45 0 0 1 1.08 2.76c.6 4.46 1 8.94 1.74 13.38 1.17 7.29 2.38 14.58 3.83 21.82.52 2.61-.29 3.67-2.71 4.05a33.82 33.82 0 0 1-15.75-1.59z"/>
    <path fill="#82b140" d="M541.88 219h-74c-2.65 0-9.47-.15-9.47-.15s-.15-6.83-.15-9.47l93.24-89.2v89.2a9.65 9.65 0 0 1-9.62 9.62z" style="mix-blend-mode:multiply" opacity=".34"/>
    <path d="M34.89 353.82l3 2.5 1.26 1 2.95 2.44a.75.75 0 0 0 1-1.11c1.32-1.66 2.59-3.37 3.83-5.1a6.13 6.13 0 0 0 .56-1.39l-10.37-8.59a6 6 0 0 0-1.26.8c-1.47 1.54-2.91 3.1-4.3 4.72a.75.75 0 0 0-.9 1.2l2.91 2.41z"/>
    <path fill="#939598" d="M39.18 357.37l4-6.42c.27-.44.52-.88.82-1.3 1.09-1.55 1.69-3.47 4-3.87 1.13-.19 1.32-1.6 1.24-2.7a3.39 3.39 0 0 0-1.41-2.73 3.73 3.73 0 0 0-2.22-.74 2.92 2.92 0 0 0-3.19 2.92 4.07 4.07 0 0 1-1 2.12c-2.14 2.35-4.36 4.61-6.56 6.9-.43.45-.9.88-1.42 1.38l1.3 1c1-1 1.9-2 2.84-3 2-2 4-4 5.89-6.15a3.46 3.46 0 0 0 .51-2.06 1.39 1.39 0 0 1 1.56-1.54 2 2 0 0 1 2.12 1.67 1.34 1.34 0 0 1-1.14 1.86 3.06 3.06 0 0 0-2.28 1.57c-1.86 3.17-3.88 6.25-5.84 9.36a8.53 8.53 0 0 1-.57.74z"/>
    <g style="mix-blend-mode:multiply">
      <path d="M379.06 420.48l3.72-1.26 1.55-.53 3.62-1.23a.75.75 0 0 0-.41-1.44c-.72-2-1.52-4-2.34-5.93a6.13 6.13 0 0 0-.89-1.2l-12.75 4.33a6 6 0 0 0 0 1.49c.54 2.06 1.12 4.11 1.76 6.13a.75.75 0 0 0 .56 1.39l3.58-1.22z"/>
      <path fill="#939598" d="M384.33 418.69l-3.33-6.78c-.23-.46-.48-.91-.68-1.38-.75-1.74-2.07-3.26-1.17-5.47.43-1.06-.67-2-1.65-2.47a3.39 3.39 0 0 0-3.07-.23 3.73 3.73 0 0 0-1.79 1.5 2.92 2.92 0 0 0 .82 4.24 4.07 4.07 0 0 1 1.28 2c.88 3 1.64 6.13 2.43 9.2.16.61.28 1.23.43 1.93l1.55-.58c-.38-1.38-.75-2.69-1.09-4-.71-2.75-1.34-5.52-2.15-8.24-.18-.6-.9-1.12-1.49-1.51a1.39 1.39 0 0 1-.49-2.14 2 2 0 0 1 2.53-.93 1.34 1.34 0 0 1 1 1.94 3.06 3.06 0 0 0 .14 2.77c1.72 3.25 3.29 6.58 4.91 9.88a8.53 8.53 0 0 1 .33.87z"/>
    </g>
    <path fill="none" stroke="#83b241" stroke-width=".47898493" stroke-miterlimit="10" d="M330.78 389.75l-9.05 9.67s-1.26 1-2.1.06c-.66-.7.28-2 .83-2.56s9.2-9.67 9.2-9.67 2.12-2.59 4.26-.4c1.8 1.85-.65 4.15-.65 4.15l-10.06 10.57s-3.45 3-5.88.46c-2.08-2.16-.3-5 .74-6.16.66-.75 9.53-10.06 9.53-10.06m-307.96 8.98l-10.31-8.32s-1.1-1.23-.18-2.3 2.49-.33 3.08.18 10.32 8.47 10.32 8.47 2.69 2 .61 4.37c-1.84 2.14-4.61.17-4.61.17L6.9 387.83s-3.39-2.95-.73-6c2.18-2.53 5.19-1.11 6.46-.15.8.6 11.12 9.05 11.12 9.05" stroke-linecap="round"/>
    <rect width="335.38" height="235" x="77.15" y="121.09" fill="#e5e5e5" rx="3.6" ry="3.6"/>
    <path fill="#e0e0e0" d="M81.29 359.3c-1.42 0-2.52-1.79-2.52-3.21l39.22-.16 289.15-234.32H412c1.42 0 2.13 3.85 2.13 5.28v229.82c0 .14-1 2.7-7 2.83-54.03 1.23-325.84-.24-325.84-.24z" style="mix-blend-mode:multiply" opacity=".5"/>
    <path fill="#505d64" d="M408.62 119.69H79.49c-3.43 0-46.56-71.42-53.41-82.77L25 35.09c-2.24-4.07 1.41-8.28 5.79-8.28h428.32c3.71 0 8.08 3.88 5.28 9.22l-.6 1c-5.89 9.42-51.69 82.66-55.17 82.66z"/>
    <rect width="107.42" height="79.74" x="191.6" y="267.91" fill="#f0efef" rx="3.6" ry="3.6"/>
    <path fill="#e0e0e0" d="M404.31 113.12H83.58c-2.95 0-31.79-51.6-37.91-62.89-3.2-5.91 1.52-7.94 4.83-7.94h389.28c3.31 0 7.54 3.16 5.22 7.15-5.43 9.35-37.67 63.68-40.69 63.68z"/>
    <path fill="#505d64" d="M122.18 121.09H367.5v6.57H122.18z"/>
    <path fill="#a7a9ac" d="M218.34 353.28h52.77v2.11h-52.77z"/>
    <rect width="16.3" height="15.71" x="98.84" y="157.21" fill="#939598" rx=".56" ry=".56"/>
    <rect width="16.3" height="15.71" x="119.23" y="157.21" fill="#939598" rx=".56" ry=".56"/>
    <rect width="16.3" height="15.71" x="139.63" y="157.21" fill="#939598" rx=".56" ry=".56"/>
    <rect width="16.3" height="15.71" x="160.02" y="157.21" fill="#939598" rx=".56" ry=".56"/>
    <rect width="16.3" height="15.71" x="180.41" y="157.21" fill="#939598" rx=".56" ry=".56"/>
    <rect width="16.3" height="15.71" x="200.8" y="157.21" fill="#939598" rx=".56" ry=".56"/>
    <rect width="16.3" height="15.71" x="221.19" y="157.21" fill="#939598" rx=".56" ry=".56"/>
    <rect width="16.3" height="15.71" x="241.58" y="157.21" fill="#939598" rx=".56" ry=".56"/>
    <rect width="16.3" height="15.71" x="261.97" y="157.21" fill="#939598" rx=".56" ry=".56"/>
    <rect width="16.3" height="15.71" x="282.36" y="157.21" fill="#939598" rx=".56" ry=".56"/>
    <rect width="16.3" height="15.71" x="302.76" y="157.21" fill="#939598" rx=".56" ry=".56"/>
    <rect width="16.3" height="15.71" x="323.15" y="157.21" fill="#939598" rx=".56" ry=".56"/>
    <rect width="16.3" height="15.71" x="343.54" y="157.21" fill="#939598" rx=".56" ry=".56"/>
    <rect width="26.42" height="15.71" x="363.43" y="157.21" fill="#939598" rx=".56" ry=".56"/>
    <rect width="16.3" height="15.71" x="373.56" y="177.54" fill="#939598" rx=".56" ry=".56" transform="rotate(-180 381.71 185.395)"/>
    <rect width="16.3" height="15.71" x="353.17" y="177.54" fill="#939598" rx=".56" ry=".56" transform="rotate(-180 361.315 185.395)"/>
    <rect width="16.3" height="15.71" x="332.78" y="177.54" fill="#939598" rx=".56" ry=".56" transform="rotate(-180 340.925 185.395)"/>
    <rect width="16.3" height="15.71" x="312.38" y="177.54" fill="#939598" rx=".56" ry=".56" transform="rotate(-180 320.535 185.395)"/>
    <rect width="16.3" height="15.71" x="291.99" y="177.54" fill="#939598" rx=".56" ry=".56" transform="rotate(-180 300.145 185.395)"/>
    <rect width="16.3" height="15.71" x="271.6" y="177.54" fill="#939598" rx=".56" ry=".56" transform="rotate(-180 279.75 185.395)"/>
    <rect width="16.3" height="15.71" x="251.21" y="177.54" fill="#939598" rx=".56" ry=".56" transform="rotate(-180 259.36 185.395)"/>
    <rect width="16.3" height="15.71" x="230.82" y="177.54" fill="#939598" rx=".56" ry=".56" transform="rotate(-180 238.97 185.395)"/>
    <rect width="16.3" height="15.71" x="210.43" y="177.54" fill="#939598" rx=".56" ry=".56" transform="rotate(-180 218.58 185.395)"/>
    <rect width="16.3" height="15.71" x="190.04" y="177.54" fill="#939598" rx=".56" ry=".56" transform="rotate(-180 198.185 185.395)"/>
    <rect width="16.3" height="15.71" x="169.65" y="177.54" fill="#939598" rx=".56" ry=".56" transform="rotate(-180 177.795 185.395)"/>
    <rect width="16.3" height="15.71" x="149.25" y="177.54" fill="#939598" rx=".56" ry=".56" transform="rotate(-180 157.405 185.395)"/>
    <rect width="16.3" height="15.71" x="128.86" y="177.54" fill="#939598" rx=".56" ry=".56" transform="rotate(-180 137.015 185.395)"/>
    <rect width="16.3" height="15.71" x="338.09" y="197.86" fill="#939598" rx=".56" ry=".56" transform="rotate(-180 346.24 205.72)"/>
    <rect width="16.3" height="15.71" x="317.7" y="197.86" fill="#939598" rx=".56" ry=".56" transform="rotate(-180 325.85 205.72)"/>
    <rect width="16.3" height="15.71" x="297.31" y="197.86" fill="#939598" rx=".56" ry=".56" transform="rotate(-180 305.46 205.72)"/>
    <rect width="16.3" height="15.71" x="276.92" y="197.86" fill="#939598" rx=".56" ry=".56" transform="rotate(-180 285.07 205.72)"/>
    <rect width="16.3" height="15.71" x="256.53" y="197.86" fill="#939598" rx=".56" ry=".56" transform="rotate(-180 264.675 205.72)"/>
    <rect width="16.3" height="15.71" x="236.14" y="197.86" fill="#939598" rx=".56" ry=".56" transform="rotate(-180 244.285 205.72)"/>
    <rect width="16.3" height="15.71" x="215.74" y="197.86" fill="#939598" rx=".56" ry=".56" transform="rotate(-180 223.895 205.72)"/>
    <rect width="16.3" height="15.71" x="195.35" y="197.86" fill="#939598" rx=".56" ry=".56" transform="rotate(-180 203.5 205.72)"/>
    <rect width="16.3" height="15.71" x="174.96" y="197.86" fill="#939598" rx=".56" ry=".56" transform="rotate(-180 183.11 205.72)"/>
    <rect width="16.3" height="15.71" x="154.57" y="197.86" fill="#939598" rx=".56" ry=".56" transform="rotate(-180 162.72 205.72)"/>
    <rect width="16.3" height="15.71" x="134.18" y="197.86" fill="#939598" rx=".56" ry=".56" transform="rotate(-180 142.33 205.72)"/>
    <rect width="26.42" height="15.71" x="98.84" y="177.54" fill="#939598" rx=".56" ry=".56" transform="rotate(-180 112.055 185.395)"/>
    <rect width="31.31" height="15.71" x="98.84" y="197.86" fill="#939598" rx=".56" ry=".56" transform="rotate(-180 114.495 205.72)"/>
    <rect width="31.31" height="15.71" x="358.39" y="197.86" fill="#939598" rx=".56" ry=".56" transform="rotate(-180 374.045 205.72)"/>
    <rect width="16.3" height="15.71" x="373.56" y="218.19" fill="#939598" rx=".56" ry=".56" transform="rotate(-180 381.71 226.045)"/>
    <rect width="16.3" height="15.71" x="353.17" y="218.19" fill="#939598" rx=".56" ry=".56" transform="rotate(-180 361.315 226.045)"/>
    <rect width="16.3" height="15.71" x="332.78" y="218.19" fill="#939598" rx=".56" ry=".56" transform="rotate(-180 340.925 226.045)"/>
    <rect width="16.3" height="15.71" x="312.38" y="218.19" fill="#939598" rx=".56" ry=".56" transform="rotate(-180 320.535 226.045)"/>
    <rect width="16.3" height="15.71" x="291.99" y="218.19" fill="#939598" rx=".56" ry=".56" transform="rotate(-180 300.145 226.045)"/>
    <rect width="16.3" height="15.71" x="271.6" y="218.19" fill="#939598" rx=".56" ry=".56" transform="rotate(-180 279.75 226.045)"/>
    <rect width="16.3" height="15.71" x="251.21" y="218.19" fill="#939598" rx=".56" ry=".56" transform="rotate(-180 259.36 226.045)"/>
    <rect width="16.3" height="15.71" x="230.82" y="218.19" fill="#939598" rx=".56" ry=".56" transform="rotate(-180 238.97 226.045)"/>
    <rect width="16.3" height="15.71" x="210.43" y="218.19" fill="#939598" rx=".56" ry=".56" transform="rotate(-180 218.58 226.045)"/>
    <rect width="16.3" height="15.71" x="190.04" y="218.19" fill="#939598" rx=".56" ry=".56" transform="rotate(-180 198.185 226.045)"/>
    <rect width="16.3" height="15.71" x="169.65" y="218.19" fill="#939598" rx=".56" ry=".56" transform="rotate(-180 177.795 226.045)"/>
    <rect width="16.3" height="15.71" x="149.25" y="218.19" fill="#939598" rx=".56" ry=".56" transform="rotate(-180 157.405 226.045)"/>
    <rect width="16.3" height="15.71" x="128.86" y="218.19" fill="#939598" rx=".56" ry=".56" transform="rotate(-180 137.015 226.045)"/>
    <rect width="26.42" height="15.71" x="98.84" y="218.19" fill="#939598" rx=".56" ry=".56" transform="rotate(-180 112.055 226.045)"/>
    <rect width="16.3" height="6.65" x="373.56" y="248.52" fill="#939598" rx=".56" ry=".56" transform="rotate(-180 381.71 251.845)"/>
    <rect width="16.3" height="15.71" x="353.17" y="239.45" fill="#939598" rx=".56" ry=".56" transform="rotate(-180 361.315 247.31)"/>
    <rect width="16.3" height="6.65" x="332.78" y="248.52" fill="#939598" rx=".56" ry=".56" transform="rotate(-180 340.925 251.845)"/>
    <rect width="16.3" height="15.71" x="312.38" y="239.45" fill="#939598" rx=".56" ry=".56" transform="rotate(-180 320.535 247.31)"/>
    <rect width="16.3" height="15.71" x="291.99" y="239.45" fill="#939598" rx=".56" ry=".56" transform="rotate(-180 300.145 247.31)"/>
    <rect width="16.3" height="15.71" x="140.25" y="239.45" fill="#939598" rx=".56" ry=".56" transform="rotate(-180 148.4 247.31)"/>
    <rect width="16.3" height="15.71" x="119.86" y="239.45" fill="#939598" rx=".56" ry=".56" transform="rotate(-180 128.01 247.31)"/>
    <rect width="16.3" height="15.71" x="99.47" y="239.45" fill="#939598" rx=".56" ry=".56" transform="rotate(-180 107.62 247.31)"/>
    <rect width="19.74" height="15.71" x="161.39" y="239.45" fill="#939598" rx=".56" ry=".56" transform="rotate(-180 171.255 247.31)"/>
    <rect width="97.92" height="15.71" x="187.34" y="239.45" fill="#939598" rx=".56" ry=".56" transform="rotate(-180 236.3 247.31)"/>
    <rect width="16.3" height="10.08" x="98.84" y="143.61" fill="#939598" rx=".56" ry=".56"/>
    <rect width="16.3" height="10.08" x="119.95" y="143.61" fill="#939598" rx=".56" ry=".56"/>
    <rect width="16.3" height="10.08" x="141.06" y="143.61" fill="#939598" rx=".56" ry=".56"/>
    <rect width="16.3" height="10.08" x="162.17" y="143.61" fill="#939598" rx=".56" ry=".56"/>
    <rect width="16.3" height="10.08" x="183.27" y="143.61" fill="#939598" rx=".56" ry=".56"/>
    <rect width="16.3" height="10.08" x="204.38" y="143.61" fill="#939598" rx=".56" ry=".56"/>
    <rect width="16.3" height="10.08" x="225.49" y="143.61" fill="#939598" rx=".56" ry=".56"/>
    <rect width="16.3" height="10.08" x="246.6" y="143.61" fill="#939598" rx=".56" ry=".56"/>
    <rect width="16.3" height="10.08" x="267.71" y="143.61" fill="#939598" rx=".56" ry=".56"/>
    <rect width="16.3" height="10.08" x="288.81" y="143.61" fill="#939598" rx=".56" ry=".56"/>
    <rect width="16.3" height="10.08" x="309.92" y="143.61" fill="#939598" rx=".56" ry=".56"/>
    <rect width="16.3" height="10.08" x="331.03" y="143.61" fill="#939598" rx=".56" ry=".56"/>
    <rect width="16.3" height="10.08" x="352.14" y="143.61" fill="#939598" rx=".56" ry=".56"/>
    <rect width="16.3" height="10.08" x="373.25" y="143.61" fill="#939598" rx=".56" ry=".56"/>
    <path fill="#bcbec0" d="M465.22 32.78L163.15 37.3l-79.02 75.82 324.49 6.57 56.6-86.91" style="mix-blend-mode:multiply" opacity=".2"/>
    <path fill="#bcbec0" d="M441.34 363.46c-.44 0 .31-7.69.31-7.69s58.51-56.27 58.51-55.82v65.33c0 .12-1.45 12.64-12.45 18.87-4.28 2.42-9.75 2.73-17.51 2.73-7.47 0-13.84-.07-18-2.73-10.49-6.81-10.86-20.69-10.86-20.69z" style="mix-blend-mode:multiply" opacity=".15"/>
    <path fill="#784334" d="M189 475.51c2.07.64-12.22-95.22-35.38-109.31-26.82-16.29-33.62-54.1-25.95-66.63 7.56-12.29 11.54 39.76 21.94 30.64 3.87-3.39 23.71-38.82 36.67-70.23 9.22-22.33 15-37.13 21.51-35.09 10.28 3.19-.24 33.68-6.26 52.82-5.34 16.95 33.77 25.55 26.23 61.33-2.29 10.86-7.92 24.18-9.53 27.91-2.36 5.51-5.51 11-5.51 14.56 0 25.7 11.83 45.83 19.28 90.18"/>
    <rect width="77.75" height="157.45" x="136.37" y="219.49" fill="#231f20" rx="5.4" ry="5.4" transform="rotate(-11.15 175.304 298.27)"/>
    <path fill="#fff" d="M131.751159 248.40681922l65.04854-12.82097682 22.71807474 115.2624808-65.04853998 12.82097682z"/>
    <circle cx="150.96" cy="236.17" r="1.22" fill="#a7a9ac" transform="rotate(-11.15 151.005 236.223)"/>
    <rect width="13.28" height="1.95" x="156.19" y="232.73" fill="#a7a9ac" rx=".5" ry=".5" transform="rotate(-11.15 162.88 233.762)"/>
    <circle cx="188.1" cy="365.73" r="4.55" fill="#a7a9ac" transform="rotate(-11.15 188.154 365.82)"/>
    <path fill="none" fill-rule="evenodd" stroke="#86bc40" stroke-width="1.81538532" stroke-miterlimit="10" d="M151.76 278.12a8.33 8.33 0 1 0 9.78 6.56"/>
    <path fill="none" fill-rule="evenodd" d="M153.37 286.29l-1.61-8.17 8.17-1.61 1.61 8.17-8.17 1.61"/>
    <path fill="none" stroke="#86bc40" stroke-width="1.68773609" stroke-miterlimit="10" d="M141.33 261.09l27.23-5.37m-26.16 10.81l43.57-8.59m-15.84 20.1l27.23-5.37" stroke-linecap="square"/>
    <path fill="none" stroke="#86bc40" stroke-width="1.68773609" stroke-miterlimit="10" d="M171.21 283.48l19.06-3.75" stroke-linecap="square" opacity=".4483"/>
    <path fill="none" stroke="#86bc40" stroke-width="1.68773609" stroke-miterlimit="10" d="M175.1 303.24l27.23-5.37" stroke-linecap="square"/>
    <path fill="none" stroke="#86bc40" stroke-width="1.68773609" stroke-miterlimit="10" d="M176.17 308.68l19.06-3.75" stroke-linecap="square" opacity=".4483"/>
    <path fill="none" stroke="#86bc40" stroke-width="1.68773609" stroke-miterlimit="10" d="M179.88 327.46l27.23-5.36" stroke-linecap="square"/>
    <path fill="none" stroke="#86bc40" stroke-width="1.68773609" stroke-miterlimit="10" d="M180.95 332.91l19.06-3.76" stroke-linecap="square" opacity=".4483"/>
    <path fill="none" stroke="#86bc40" stroke-width="1.68773609" stroke-miterlimit="10" d="M150.11 284.11l3.53 3.54 4.93-10.87"/>
    <circle cx="158.64" cy="309.34" r="8.3" fill="#fff" stroke="#82b140" stroke-width="1.49607249" stroke-miterlimit="10" transform="rotate(-11.15 158.707 309.37)"/>
    <path fill="#82b140" d="M160.3 317.39a7.73 7.73 0 0 0 5.28-3.86c-.54-1.43-2.08-3.26-6.52-2.39s-5.17 3.15-5.12 4.68a7.73 7.73 0 0 0 6.36 1.57z"/>
    <path fill="#82b140" d="M161.11 306.86c.43 2.18-.46 4.19-2 4.49s-3.12-1.22-3.55-3.4.59-3.55 2.12-3.85 3 .58 3.43 2.76z"/>
    <circle cx="163.36" cy="333.26" r="8.3" fill="#fff" stroke="#82b140" stroke-width="1.49607249" stroke-miterlimit="10" transform="rotate(-11.15 163.403 333.307)"/>
    <path fill="#82b140" d="M165 341.31a7.73 7.73 0 0 0 5.28-3.86c-.54-1.43-2.08-3.26-6.52-2.39s-5.17 3.15-5.12 4.68a7.73 7.73 0 0 0 6.36 1.57z"/>
    <path fill="#82b140" d="M165.82 330.78c.43 2.18-.46 4.19-2 4.49s-3.12-1.22-3.55-3.4.59-3.55 2.12-3.85 3 .58 3.43 2.76z"/>
    <path fill="#784334" d="M217.9 285.87c-12.15 7.34-20 19.4-21.57 23.6s.44 10.77 7.21 8.54c2.53-.83 5.64-4 10-7.27 3.36-2.51 7.12-5.84 10.95-9.18s3.41-21.73-6.59-15.69z"/>
    <path fill="#784334" d="M205.07 318.29c-4.61 5.4-3.74 9.9-1.26 12.75 2.86 3.27 7.66.69 11.85-1.47a33.48 33.48 0 0 0 10.1-7.87 17.1 17.1 0 0 0 3.4-16.79c-2.07-6.09-10.06.07-13.18 2.55a90.84 90.84 0 0 0-10.91 10.83z"/>
    <path fill="#784334" d="M219.3 325.62a.54.54 0 0 1-.29.16c-.07 0-5.91 4.75-6.66 5.41-3 2.62-7.58 7-3 11.65s21-2.43 22.43-6.73c3.28-10.15-.74-18.54-3.41-17.05a69.43 69.43 0 0 0-9.07 6.56z"/>
    <path fill="#a4d8c2" d="M156.75 405.71c5.46-.68 73.65-13 73.65-13l8 35.17h-78.13z"/>
    <path fill="#bcbec0" d="M201.09 255.91l-57.62 52.07 11.01 55.69 65.05-12.83-18.44-94.93" style="mix-blend-mode:multiply" opacity=".15"/>
    <path fill="#fff" stroke="#82b140" stroke-width="1.99062548" d="M28.91 173.53a62.4 62.4 0 0 0 90.68 70.92c4.36 2.29 21.45 10.86 23 9.7 1.78-1.33-3.77-18.53-5.25-24.55a62.43 62.43 0 0 0-31.78-99.78c-34.99-9.58-68.1 12.48-76.65 43.71z"/>
    <circle cx="89.51" cy="190.54" r="43.65" fill="#e5edcd" stroke="#82b140" stroke-width="1.99374063" stroke-miterlimit="10"/>
    <path fill="#cedf9c" stroke="#82b140" stroke-width="1.99374063" stroke-miterlimit="10" d="M119 222.74a43.64 43.64 0 0 1-58.92 0c3.11-4.2 7.93-6.88 13.61-10.11.43-.25.8-.51 1.18-.77 3.23 2.11 8.59 3.51 14.67 3.51s11.44-1.39 14.69-3.51c.36.26.75.52 1.16.77 5.61 3.23 10.46 5.91 13.61 10.11z"/>
    <path fill="#fff" stroke="#82b140" stroke-width="1.99374063" stroke-miterlimit="10" d="M104.18 211.86C97.32 207 98 198.29 98 198.29H81s.68 8.7-6.18 13.56c3.23 2.12 8.6 3.51 14.68 3.51s11.45-1.36 14.68-3.5z"/>
    <path fill="#fff" stroke="#82b140" stroke-width="1.99374063" stroke-miterlimit="10" d="M103.71 183.68c0 4.23-3.07 20.22-14.21 20.22s-14.2-16.26-14.2-20.22c0-13.66 6.36-16.94 14.21-16.94s14.2 3.82 14.2 16.94z"/>
    <path fill="#e5edcd" stroke="#82b140" stroke-width="1.99374063" d="M97.51 168.45s-1.81-5.5-10.86-3.69c-9.22 1.84-12.29 10.86-12.29 10.86 5.72-5.72 15.71.89 19.88-3.28z" stroke-linecap="round" stroke-linejoin="round"/>
    <path fill="#e5edcd" stroke="#82b140" stroke-width="1.99374063" d="M97.51 168.45l-3.28 3.89c-.21 2.88 7.31 1.78 7.58 7l2.19-2.53s0-8.36-6.49-8.36z" stroke-linecap="round" stroke-linejoin="round"/>
    <circle cx="123.08" cy="161.83" r="12.63" fill="#82b140"/>
    <path fill="#fff" d="M122.9 167.75v-8.37h-3.24v-2a6.17 6.17 0 0 0 1.32-.1 3.43 3.43 0 0 0 1.14-.42 2.81 2.81 0 0 0 .86-.8 2.85 2.85 0 0 0 .46-1.23h2.08v12.9z"/>
    <path fill="none" stroke="#351302" stroke-width=".82942728" stroke-miterlimit="10" d="M223.36 303.32c-.36.34-5.2 1.55-16.59 13.18m20.68 3.3s-5 1.53-14.89 11.31" stroke-linecap="round"/>
    <path fill="#784334" d="M216.08 371.32l-31.18 29.47s22.33-3.85 29.17-4.83c-.27-1.62-.57-3.66-.81-5.76-.52-4.71-.68-9.7-.42-10.64.53-1.88 3.24-8.24 3.24-8.24zm16.48-48.37l-22.19 20.94a23.39 23.39 0 0 0 10.1-.38c4.24-1.05 10-4.15 11.11-6.42 2.66-5.32.98-14.14.98-14.14z" style="mix-blend-mode:multiply" opacity=".25"/>
    <path fill="#ebfeff" d="M549.48 270.17c1.49.19 2.79-.09 4.74 1.4s3.95 3.08 4.95 6.24a57.13 57.13 0 0 1 2.4 25.66c-1.86 12.09-6.6 15-8.18 15.53s-10.32-.56-16-3.26-9.77-4.84-11.16-9-2.51-15.25-1.58-20.93.3-10.23 10.18-13.9a33.41 33.41 0 0 1 14.65-1.74zm0 113.89c1.49-.19 2.79.09 4.74-1.4s3.95-3.08 4.95-6.24a57.13 57.13 0 0 0 2.4-25.66c-1.86-12.09-6.6-15-8.18-15.53s-10.32.56-16 3.26-9.77 4.84-11.16 9-2.51 15.25-1.58 20.93.3 10.23 10.18 13.9a33.41 33.41 0 0 0 14.65 1.74z" opacity=".75"/>
    <path fill="#a4d8c2" d="M229.93 392.88L143.95 474l100.81-10.43-14.83-70.69" style="mix-blend-mode:multiply" opacity=".45"/>
  </g>
</svg>