<svg xmlns="http://www.w3.org/2000/svg" viewBox="0 0 580 420">
  <g data-name="Layer 5" style="isolation:isolate">
    <path fill="#d1d3d4" d="M214.77 347.82l-16.84 34.35h170.4l-16.83-34.35H214.77"/>
    <path fill="#a7a9ac" d="M336.34 315.49H229.92l-15.15 32.33H351.5l-15.16-32.33" opacity=".75"/>
    <path fill="#939598" d="M379.78 382.85a4.6 4.6 0 0 0-4.71-4.71H191.19a4.6 4.6 0 0 0-4.71 4.71v4.71h193.3z"/>
    <path fill="#babcbe" d="M101.61 331a14.3 14.3 0 0 1-14.14-14.5V85.14a14.3 14.3 0 0 1 14.14-14.48h362.7a14.3 14.3 0 0 1 14.14 14.48V316.5a14.3 14.3 0 0 1-14.14 14.5z"/>
    <path fill="#b3b5b8" d="M102.29 76.72a8.19 8.19 0 0 0-8.08 8.08v231.37a8.19 8.19 0 0 0 8.08 8.08h361.35a8.19 8.19 0 0 0 8.08-8.08v-231a8.19 8.19 0 0 0-8.08-8.08H102.29z" style="mix-blend-mode:multiply"/>
    <path fill="#fff" d="M101.61 309.43h361.35V91.54H101.61v217.89"/>
    <path fill="#cedf9c" stroke="#82b140" stroke-width=".74099436" stroke-miterlimit="10" d="M159.52 158.51a15.82 15.82 0 0 1-21.36 0c1.13-1.52 2.88-2.5 4.93-3.67.15-.09.29-.18.43-.28a11.77 11.77 0 0 0 10.65 0l.42.28c2.06 1.16 3.8 2.16 4.93 3.67z"/>
    <path fill="#fff" stroke="#82b140" stroke-width=".74099436" stroke-miterlimit="10" d="M154.16 154.56a5.87 5.87 0 0 1-2.24-4.92h-6.16a5.87 5.87 0 0 1-2.24 4.92 11.75 11.75 0 0 0 10.64 0z"/>
    <path fill="#fff" stroke="#82b140" stroke-width=".74099436" stroke-miterlimit="10" d="M154 144.35c0 1.54-1.11 7.33-5.15 7.33s-5.15-5.89-5.15-7.33c0-5 2.31-6.14 5.15-6.14s5.15 1.38 5.15 6.14z"/>
    <path fill="#e5edcd" stroke="#82b140" stroke-width=".74099436" d="M151.75 138.82s-.66-2-3.94-1.34a6.35 6.35 0 0 0-4.46 3.94c2.07-2.07 5.7.32 7.21-1.19z" stroke-linecap="round" stroke-linejoin="round"/>
    <path fill="#e5edcd" stroke="#82b140" stroke-width=".74099436" d="M151.75 138.82l-1.19 1.41c-.07 1 2.65.64 2.75 2.55l.79-.92s0-3.04-2.35-3.04z" stroke-linecap="round" stroke-linejoin="round"/>
    <path fill="#cedf9c" stroke="#82b140" stroke-width=".74099436" stroke-miterlimit="10" d="M159.52 212a15.82 15.82 0 0 1-21.36 0c1.13-1.52 2.88-2.5 4.93-3.67.15-.09.29-.18.43-.28a11.77 11.77 0 0 0 10.65 0l.42.28c2.06 1.18 3.8 2.16 4.93 3.67z"/>
    <path fill="#fff" stroke="#82b140" stroke-width=".74099436" stroke-miterlimit="10" d="M154.16 208.06a5.87 5.87 0 0 1-2.24-4.92h-6.16a5.87 5.87 0 0 1-2.24 4.92 11.75 11.75 0 0 0 10.64 0z"/>
    <path fill="#fff" stroke="#82b140" stroke-width=".74099436" stroke-miterlimit="10" d="M154 197.84c0 1.54-1.11 7.33-5.15 7.33s-5.15-5.89-5.15-7.33c0-5 2.31-6.14 5.15-6.14s5.15 1.39 5.15 6.14z"/>
    <path fill="#e5edcd" stroke="#82b140" stroke-width=".74099436" d="M151.75 192.32s-.66-2-3.94-1.34a6.35 6.35 0 0 0-4.46 3.94c2.07-2.07 5.7.32 7.21-1.19z" stroke-linecap="round" stroke-linejoin="round"/>
    <path fill="#e5edcd" stroke="#82b140" stroke-width=".74099436" d="M151.75 192.32l-1.19 1.41c-.07 1 2.65.64 2.75 2.55l.79-.92s0-3.04-2.35-3.04z" stroke-linecap="round" stroke-linejoin="round"/>
    <path fill="#cedf9c" stroke="#82b140" stroke-width=".74099436" stroke-miterlimit="10" d="M159.52 265.51a15.82 15.82 0 0 1-21.36 0c1.13-1.52 2.88-2.5 4.93-3.67.15-.09.29-.18.43-.28a11.77 11.77 0 0 0 10.65 0l.42.28c2.06 1.16 3.8 2.16 4.93 3.67z"/>
    <path fill="#fff" stroke="#82b140" stroke-width=".74099436" stroke-miterlimit="10" d="M154.16 261.56a5.87 5.87 0 0 1-2.24-4.92h-6.16a5.87 5.87 0 0 1-2.24 4.92 11.75 11.75 0 0 0 10.64 0z"/>
    <path fill="#fff" stroke="#82b140" stroke-width=".74099436" stroke-miterlimit="10" d="M154 251.34c0 1.54-1.11 7.33-5.15 7.33s-5.15-5.89-5.15-7.33c0-5 2.31-6.14 5.15-6.14s5.15 1.39 5.15 6.14z"/>
    <path fill="#e5edcd" stroke="#82b140" stroke-width=".74099436" d="M151.75 245.82s-.66-2-3.94-1.34a6.35 6.35 0 0 0-4.46 3.94c2.07-2.07 5.7.32 7.21-1.19z" stroke-linecap="round" stroke-linejoin="round"/>
    <path fill="#e5edcd" stroke="#82b140" stroke-width=".74099436" d="M151.75 245.82l-1.19 1.41c-.07 1 2.65.64 2.75 2.55l.79-.92s0-3.04-2.35-3.04z" stroke-linecap="round" stroke-linejoin="round"/>
    <path fill="none" stroke="#82b040" stroke-width="1.77838645" d="M532.45 325.31l-21.04-4.02" stroke-linecap="round"/>
    <path fill="#09b186" d="M0 387.53h580V420H0z"/>
    <path fill="#a7a9ac" d="M174.5 133.49h252.04v8.72H174.5z" opacity=".75"/>
    <path fill="#e4e4e4" d="M174.5 150.43h168.03v8.72H174.5z"/>
    <path fill="#a7a9ac" d="M174.5 187.59h252.04v8.72H174.5z" opacity=".75"/>
    <path fill="#e4e4e4" d="M174.5 204.53h168.03v8.72H174.5z"/>
    <path fill="#a7a9ac" d="M174.5 239.9h252.04v8.72H174.5z" opacity=".75"/>
    <path fill="#e4e4e4" d="M174.5 256.84h168.03v8.72H174.5z"/>
    <circle cx="148.84" cy="146.83" r="15.83" fill="none" stroke="#82b140" stroke-width="1.77838645"/>
    <circle cx="148.84" cy="200.33" r="15.83" fill="none" stroke="#82b140" stroke-width="1.77838645"/>
    <circle cx="148.84" cy="253.83" r="15.83" fill="none" stroke="#82b140" stroke-width="1.77838645"/>
    <path fill="#58595b" d="M458.43 388.56s.48-9.12-5.35-16.25c-5.35-6.54-45.18-9.51-52.9-.59-9.13 10.53-5.35 16.64-5.35 16.64z"/>
    <path fill="#6d6e71" d="M370.9 387.71H121.22l-.03-13.71h249.66l.05 13.71"/>
    <path fill="#82b140" stroke="#83b241" stroke-width=".98862055" stroke-miterlimit="10" d="M545.26 373.33a34.19 34.19 0 0 0 12.42-2.65c8.7-3.74 13.49-11 13.49-20.35a19.44 19.44 0 0 0-5.73-14.33c-7.52-7.35-19.45-7.3-20.78-7.27l.21 10.17c2.46-.05 9.7.67 13.48 4.39a9.28 9.28 0 0 1 2.64 7c0 5.36-2.33 8.86-7.34 11a24.47 24.47 0 0 1-8.4 1.82v10.17z"/>
    <path fill="#82b140" stroke="#83b241" stroke-width=".98862055" stroke-miterlimit="10" d="M547.01 387.68h-55.1v-76.99h55.1z"/>
    <path fill="#82b140" d="M548.07 334.7l-56.15 52.98 56.42-.64-.27-52.34" style="mix-blend-mode:multiply" opacity=".34"/>
    <path fill="#58595b" d="M426.13 366l-23.71 22.31 56.16-.25s-1.28-10.95-5.44-15.85-27.01-6.21-27.01-6.21z" style="mix-blend-mode:multiply" opacity=".5"/>
    <path fill="#bc9368" d="M525 300l.47-2.53c.07-.79.18-1.74.26-2.8a24.17 24.17 0 0 0-.14-3.45 20.84 20.84 0 0 0-2.41-7.49c-1.29-2.45-3-4.86-4.15-7.34-.31-.59-.56-1.29-.83-2s-.44-1.45-.66-2.2-.29-1.58-.35-2.36l-.06-1.17a9.8 9.8 0 0 1 0-1.18 26.51 26.51 0 0 1 1.7-8.82 29.76 29.76 0 0 1 3.16-6.09 21.78 21.78 0 0 1 1.67-2.2c.41-.45 1.74.76 1.5 1.16l-.37.56c-.23.37-.57.91-.94 1.61a29.34 29.34 0 0 0-2.38 5.83 25.46 25.46 0 0 0-.95 7.9 8.08 8.08 0 0 0 .07 1l.1 1c.08.66.25 1.26.36 1.88s.35 1.2.59 1.77.44 1.13.73 1.67c1 2.16 2.58 4.62 3.87 7.43l.46 1.07.23.53.19.56a17.75 17.75 0 0 1 .67 2.23l.26 1.12c.07.37.11.75.16 1.12l.14 1.09v1.07a25.36 25.36 0 0 1-.19 3.86c-.18 1.15-.41 2.16-.57 3l-.77 2.61c-.26.51-1.82.04-1.82-.44zm-13.44-.31l.47-2.53c.07-.79.18-1.74.26-2.8a24.17 24.17 0 0 0-.14-3.45 20.84 20.84 0 0 0-2.41-7.49c-1.29-2.45-3-4.86-4.15-7.34-.32-.59-.56-1.29-.83-2s-.44-1.45-.66-2.2-.29-1.58-.35-2.36l-.06-1.17a9.86 9.86 0 0 1 0-1.18 26.51 26.51 0 0 1 1.7-8.82 29.75 29.75 0 0 1 3.16-6.09 21.78 21.78 0 0 1 1.67-2.2c.41-.45 1.74.76 1.5 1.16l-.37.56c-.23.37-.57.91-.94 1.61a29.34 29.34 0 0 0-2.38 5.83 25.46 25.46 0 0 0-.95 7.9 8.08 8.08 0 0 0 .07 1l.1 1c.08.66.25 1.26.36 1.88s.35 1.2.59 1.77.44 1.13.73 1.67c1 2.16 2.58 4.62 3.87 7.43l.46 1.07.23.53.19.56a17.75 17.75 0 0 1 .67 2.23l.26 1.12c.07.37.11.75.16 1.12l.14 1.09v1.07a25.32 25.32 0 0 1-.19 3.86c-.18 1.15-.41 2.16-.57 3l-.77 2.61c-.3.55-1.82.09-1.82-.44z" opacity=".15"/>
    <path fill="#44425e" d="M52.03106083 256.43614122l6.59114745-1.25732862 13.598262 71.2845858-6.59114745 1.2573286z"/>
    <path fill="#fbb040" d="M113.07572996 257.00750322l6.54143108 1.4945834-16.16422015 70.74689312-6.5414311-1.4945834z"/>
    <path fill="#784334" d="M67.33153834 254.09580683l6.66818273-.74795654 8.0893004 72.11773786-6.66818272.74795654z"/>
    <path fill="#82b140" d="M55.2 311h64.6l-11.89 76.64-40.42.63L55.2 311"/>
    <path fill="#82b140" d="M118.76 321.44l-53.04 50.15 2.97 16.64 39.22-1.35 10.85-65.44" style="mix-blend-mode:multiply" opacity=".34"/>
    <path fill="#83b241" d="M168.5 23c0 .2 3 18.63 2.39 20.52-.08.25-.59.42-.79.18-1.29-1.5-5.79-19.63-5.83-19.83-.17-.87 4.06-1.71 4.23-.87zm125.34-1.54c0 .21-.76 18.86-1.76 20.58-.13.23-.66.29-.81 0-1-1.73-1.75-20.39-1.75-20.6-.01-.85 4.32-.85 4.32.02zm233.38 25.37c-.15.14-14.35 12.26-16.29 12.7-.25.06-.66-.29-.57-.58.61-1.89 13.77-15.15 13.92-15.29.64-.59 3.57 2.58 2.94 3.17zm13.45 93.51c-.2 0-18.85.89-20.65 0-.24-.11-.35-.63-.09-.81 1.64-1.12 20.16-3.53 20.37-3.55.85.02 1.23 4.28.37 4.36zm-3.04 85.13c-.2 0-18.73-2.31-20.36-3.45-.21-.15-.24-.68 0-.81 1.81-.82 20.47-.06 20.67 0 .91.02.55 4.33-.31 4.26zM52.42 43.66c.15.14 13.32 13.37 13.9 15.27.08.25-.24.68-.54.61-1.92-.47-16.15-12.54-16.3-12.71-.63-.59 2.3-3.76 2.94-3.17zM36.41 136c.2 0 18.72 2.4 20.35 3.55.21.15.23.68-.05.81-1.81.81-20.47 0-20.67-.05-.87-.05-.49-4.31.37-4.31zm2.3 85.16c.2 0 18.85-.8 20.65.05.24.11.34.63.09.81-1.65 1.11-20.18 3.43-20.38 3.45-.87.07-1.22-4.24-.36-4.31zM419.73 24.27c0 .2-4.51 18.33-5.83 19.81-.17.19-.7.15-.8-.14-.6-1.89 2.35-20.33 2.39-20.53.18-.85 4.41.01 4.24.86z"/>
    <path fill="#e0e0e0" d="M187.63 324.2L458.95 76.54h5c1.47 0 2.2 4 2.2 5.45v237.67c0 .15-1 2.79-7.26 2.93-55.83 1.26-271.26 1.61-271.26 1.61z" style="mix-blend-mode:multiply" opacity=".2"/>
  </g>
</svg>