<svg xmlns="http://www.w3.org/2000/svg" viewBox="0 0 580 420">
  <defs>
    <clipPath id="a">
      <path fill="none" d="M0 1.11h580V420H0z"/>
    </clipPath>
  </defs>
  <g clip-path="url(#a)" data-name="Layer 3" style="isolation:isolate">
    <path fill="#09b186" d="M.24 371.61h579.57v48.64H.24z"/>
    <path fill="#44425e" d="M37.860135 240.71122003l4.83285328-.92191607 9.9630645 52.22821312-4.83285328.92191607z"/>
    <path fill="#fbb040" d="M82.59488074 241.12190287l4.79639953 1.09587933-11.84306993 51.83426082-4.79639954-1.09587933z"/>
    <path fill="#784334" d="M49.07554392 238.9836709l4.88933816-.54842715L59.8916852 291.273884l-4.88933815.54842716z"/>
    <path fill="#467ec0" d="M39.74 288.01h47.33l-3.08 63.22-39.02-.11-5.23-63.11"/>
    <path fill="#467ec0" d="M78.95 288.63h7.5l-3.07 62.44-39.03.05 34.6-62.49" style="mix-blend-mode:multiply"/>
    <path fill="#f3f7e2" d="M224.59 314.1l-15.39 31.39h155.74l-15.39-31.39H224.59"/>
    <path fill="#dfecbf" d="M335.7 284.55h-97.26l-13.85 29.55h124.96l-13.85-29.55"/>
    <path fill="none" stroke="#82b140" stroke-width="1.34881953" d="M209.2 345.8l29.24-61.25h97.26l29.24 61.25H209.2z"/>
    <path fill="#f3f7e0" stroke="#82b040" stroke-width="1.34881953" d="M375.41 346.11a4.21 4.21 0 0 0-4.31-4.31H203a4.21 4.21 0 0 0-4.31 4.31v4.31h176.72z"/>
    <path fill="#b6b6b7" d="M121.18 298.71a13.07 13.07 0 0 1-12.93-13.23V74a13.07 13.07 0 0 1 12.93-13.23h331.48A13.07 13.07 0 0 1 465.59 74v211.47a13.07 13.07 0 0 1-12.93 13.23z"/>
    <path fill="#505d64" d="M121.79 66.33a7.49 7.49 0 0 0-7.39 7.39v211.45a7.49 7.49 0 0 0 7.39 7.39H452a7.49 7.49 0 0 0 7.39-7.39V74a7.49 7.49 0 0 0-7.39-7.36H121.79z"/>
    <path fill="#fff" d="M121.18 279.01h330.25V79.88H121.18v199.13"/>
    <path fill="#dfecbf" d="M151.46 153.48c-6.81 0-12.64-5.86-12.64-13.44v-15.51c0-7.24 5.51-13.44 12.64-13.44H424c6.81 0 12.64 5.86 12.64 13.44V140c0 7.24-5.51 13.44-12.64 13.44z" style="mix-blend-mode:multiply"/>
    <path fill="#dfecbf" d="M151.46 202.79c-6.81 0-12.64-5.86-12.64-13.44v-15.51c0-7.24 5.51-13.44 12.64-13.44H424c6.81 0 12.64 5.86 12.64 13.44v15.51c0 7.24-5.51 13.44-12.64 13.44zm0 49.31c-6.81 0-12.64-5.86-12.64-13.44v-15.51c0-7.24 5.51-13.44 12.64-13.44H424c6.81 0 12.64 5.86 12.64 13.44v15.51c0 7.24-5.51 13.44-12.64 13.44z" data-name="Fill-23" style="mix-blend-mode:multiply"/>
    <path fill="#09b186" d="M-.65 351.12h580.9v22.72H-.65z"/>
    <circle cx="455.05" cy="71.08" r="42.17" fill="#71af05"/>
    <path fill="#fff" d="M467.87 49.46l-.39 22.23 18.58-9.45-18.19-12.78"/>
    <path fill="none" stroke="#fff" stroke-width="9" stroke-miterlimit="10" d="M474.25 58.6a22.74 22.74 0 1 1-18.93-10.14" stroke-linecap="round"/>
    <circle cx="161.31" cy="131.92" r="14.46" fill="#fff"/>
    <circle cx="161.31" cy="182.2" r="14.46" fill="#fff"/>
    <circle cx="161.31" cy="229.75" r="14.46" fill="#fff"/>
    <path fill="#5b7735" d="M165 140.76h-4.79v-9.25q0-1.68.07-3.08a10.22 10.22 0 0 1-1.1 1.12l-2 1.64-2.45-3 6-4.89H165zm2.75 49.92h-12.68v-3.11l4.27-4.31q1.83-1.91 2.39-2.61a5.7 5.7 0 0 0 .78-1.2 2.58 2.58 0 0 0 .22-1.05 1.37 1.37 0 0 0-.44-1.08 1.8 1.8 0 0 0-1.24-.39 3.39 3.39 0 0 0-1.67.47 11.94 11.94 0 0 0-1.91 1.39l-2.59-3a13.89 13.89 0 0 1 2.27-1.73 8.08 8.08 0 0 1 2-.8 9.86 9.86 0 0 1 2.43-.27 7.32 7.32 0 0 1 3 .6 4.75 4.75 0 0 1 2.07 1.7 4.39 4.39 0 0 1 .73 2.48 6.36 6.36 0 0 1-1.05 3.61 11.82 11.82 0 0 1-1.43 1.78q-.89.93-3.79 3.54v.12h6.61zm-.7 34.05a4.16 4.16 0 0 1-1 2.79 5.65 5.65 0 0 1-2.87 1.69v.07q4.37.55 4.37 4.13a4.48 4.48 0 0 1-1.93 3.84 9 9 0 0 1-5.36 1.4 15.78 15.78 0 0 1-2.61-.2 13.76 13.76 0 0 1-2.6-.74v-3.92a10.43 10.43 0 0 0 2.34.86 9.5 9.5 0 0 0 2.19.28 4.48 4.48 0 0 0 2.26-.44 1.49 1.49 0 0 0 .71-1.37 1.54 1.54 0 0 0-.37-1.11 2.39 2.39 0 0 0-1.19-.58 9.48 9.48 0 0 0-2.15-.2h-1.08v-3.53h1.1q3.6 0 3.6-1.84a1.13 1.13 0 0 0-.53-1 2.65 2.65 0 0 0-1.43-.33 6.53 6.53 0 0 0-3.47 1.12l-2-3.15a9.46 9.46 0 0 1 2.84-1.36 12.36 12.36 0 0 1 3.33-.41 7.34 7.34 0 0 1 4.25 1.08 3.42 3.42 0 0 1 1.6 2.92z"/>
    <path fill="#989d9f" d="M144.14 328.29L14.12 175.86l141.27-141h-12.74l-141.27 141L131.4 328.29"/>
    <path fill="#b3d334" d="M156.88 75.51l-30.66-53.66 13.14-10.95 48.18 29.57 61.33 2.19-91.99 88.7V75.51"/>
    <path fill="#b3d334" d="M171.2 71.03l-33.55-58.14 2.15-1.61 48.6 29.8 60.42 1.08-77.62 75.4V71.03" style="mix-blend-mode:multiply" opacity=".5"/>
    <path fill="#b3d334" d="M76.75 351.05s16.71-26.63 63.32-24.47 61.2 24.75 61.2 24.75z"/>
    <path fill="#b3d334" d="M84.76 351.22s15.1-9 41.15-23.61a90.47 90.47 0 0 1 18-.8c43.54 2.2 57.2 24.81 57.2 24.81z" style="mix-blend-mode:multiply" opacity=".5"/>
    <path fill="none" stroke="#82b040" stroke-width="1.27782672" d="M527.08 305.05l-15.19-2.89" stroke-linecap="round"/>
    <path fill="#83b241" d="M536.32 341.09a24.67 24.67 0 0 0 9-1.91 15.23 15.23 0 0 0 9.68-14.69 14 14 0 0 0-4.13-10.3c-5.43-5.3-14-5.26-15-5.24l.15 7.34c1.78 0 7 .49 9.73 3.17a6.69 6.69 0 0 1 1.9 5c0 3.87-1.68 6.39-5.29 7.94a17.66 17.66 0 0 1-6.06 1.32v7.34z"/>
    <path fill="#83b241" d="M537.59 351.44h-39.75v-55.55h39.75z"/>
    <path fill="#82b140" d="M537.43 313.52l-39.64 38.23 39.83-.46-.19-37.77" style="mix-blend-mode:multiply" opacity=".34"/>
    <path fill="#bc9368" d="M521.74 286.76l.34-1.82c.05-.57.13-1.26.18-2a17.48 17.48 0 0 0-.1-2.49 15 15 0 0 0-1.74-5.4c-.93-1.77-2.15-3.51-3-5.29-.23-.43-.4-.93-.6-1.42s-.32-1-.48-1.59-.21-1.14-.25-1.7-.08-1.13-.06-1.69a19.12 19.12 0 0 1 1.22-6.37 21.47 21.47 0 0 1 2.28-4.39 15.69 15.69 0 0 1 1.2-1.59c.3-.32 1.26.55 1.08.84a15.42 15.42 0 0 0-.95 1.56 21.19 21.19 0 0 0-1.72 4.21 18.37 18.37 0 0 0-.68 5.7c0 .49.09 1 .13 1.46s.18.91.26 1.36.25.86.43 1.28.32.82.53 1.2c.73 1.56 1.86 3.33 2.79 5.36a16.27 16.27 0 0 1 1.54 6.34 18.28 18.28 0 0 1-.14 2.79c-.13.83-.29 1.56-.41 2.16l-.56 1.89c-.2.32-1.3-.02-1.29-.4zm-9.74-.19l.34-1.82c.05-.57.13-1.26.18-2a17.44 17.44 0 0 0-.1-2.49 15 15 0 0 0-1.74-5.4c-.93-1.77-2.15-3.51-3-5.29-.23-.43-.4-.93-.6-1.42s-.32-1-.48-1.59-.21-1.14-.25-1.7-.08-1.13-.06-1.69a19.14 19.14 0 0 1 1.22-6.37 21.48 21.48 0 0 1 2.28-4.39 15.72 15.72 0 0 1 1.2-1.59c.3-.32 1.26.55 1.08.84a15.46 15.46 0 0 0-.95 1.56 21.16 21.16 0 0 0-1.72 4.21 18.36 18.36 0 0 0-.68 5.7c0 .49.09 1 .13 1.46s.18.91.26 1.36.25.86.43 1.28.32.82.53 1.2c.73 1.56 1.86 3.33 2.79 5.36a16.27 16.27 0 0 1 1.54 6.34 18.28 18.28 0 0 1-.14 2.79c-.13.83-.29 1.56-.41 2.16l-.56 1.89c-.19.32-1.29.03-1.29-.4z" opacity=".15"/>
    <path fill="#58595b" d="M468.18 351.32a17.5 17.5 0 0 0-3.6-10.33c-3.4-4.16-28.71-6-33.62-.38-5.8 6.69-5.09 10.58-5.09 10.58z"/>
    <path fill="#6d6e71" d="M407.65 350.74H166.43l-.03-9.36h241.2l.05 9.36"/>
    <path fill="#58595b" d="M439.21 337l-13.41 14.14 37.57-.16s-.81-7-3.46-10.07-20.7-3.91-20.7-3.91z" style="mix-blend-mode:multiply" opacity=".5"/>
    <path fill="#edd6c4" d="M466.4 353s-1 1.11.14-2.07c.3-.81.62-1.64 1.34-4.09a14.19 14.19 0 0 0 .87-4.62c-.21-2-3-4.83-3.84-5.93-1.89-2.47-6.15-4.61-9.53-5.38a31.86 31.86 0 0 0-18.38 1.4c-2.38.85-6.17 4.92-7.25 7.72-.6 1.57.29 1.56 1.07.89 1.73-1.49 3.93-1.09 4.61-.15 2 2.77 1.3 9 1.23 10.45-.2 4.51.51 2.9 4 4.46 7.75 3.46 25.74-2.68 25.74-2.68z"/>
    <path fill="#f48684" d="M359.53 388.56l-5.79 130.85-124.07-1.2L219 384.54s-25.35 58-21.64 174.63l-13-.42s-21.13-82.15-11.83-146.91 29-96.54 78.3-121l31.83 9.43 31.13-8.63s31 12.91 46.51 27.9"/>
    <path fill="#f48684" d="M318.12 382.66l-39.64 38.23 79.68-.46 1.64-39.47-41.68 1.7" style="mix-blend-mode:multiply" opacity=".5"/>
    <path fill="#fff" d="M250.2 41.71l303.42 309.6-413.7.28 18.26-220.22 92.02-89.66" opacity=".5"/>
    <path fill="#edd6c4" d="M437.86 344a40.51 40.51 0 0 0-7.68 3.53c-2.92 2-2.53 3.69-2.19 3.69s8.8.36 8.8.36z"/>
    <path fill="#edd6c4" d="M445.44 330.77s5.33.31 4.71 2.46-20.39 18.34-20.39 18.34l8.3-.2 28.68-.46s2.18-4.7 1.84-8.76c-.13-1.59-2.92-7.84-13.68-11.37a16.45 16.45 0 0 0-9.46-.01z" style="mix-blend-mode:multiply"/>
    <path fill="#f48684" d="M360.52 321.24c15.49 15 18.14 20.81 38.41 68.84 16.21 38.4 37.49-38.52 37.49-38.52s5.94-3.71 16.08-3.69c10.61 0 14.45 3.4 14.45 3.4s-56.13 171.83-107.67 37.27z"/>
    <path fill="#f48684" d="M360.52 321.24c15.49 15 18.14 20.81 38.41 68.84 16.21 38.4 37.49-38.52 37.49-38.52s5.94-3.71 16.08-3.69c10.61 0 14.45 3.4 14.45 3.4s-56.13 171.83-107.67 37.27z" style="mix-blend-mode:multiply" opacity=".5"/>
    <path fill="#c4652e" d="M208 380.94c-14.26-11.92-30.71-26.74-32-58.18-1.2-30.08 8.21-45.37 23.37-70 12.12-19.65 16.11-29 21.75-80.15 4.46-40.43 20.15-73 57.6-78.94 37.86-6 62.43 30.61 68.47 64.44 5.77 32.29 9.52 52.44 31.42 76.53C418.9 279 391.31 302 391.31 302 438.67 378.07 283 443.63 208 380.94z"/>
    <path fill="#808285" d="M208.6 380.94c-13.84-11.57-27.7-23.94-32.6-53.22-.15-.88 145-142 171.58-168.76 4.66 32.47 7.25 47.53 33 78.14 35.87 42.52 11.34 64.9 11.34 64.9 47.37 76.07-108.34 141.63-183.32 78.94z" style="mix-blend-mode:multiply" opacity=".15"/>
    <path fill="#f8ecb1" d="M218.17 71.77s10 16.62-2.22 28.81S186 103.9 186 103.9z"/>
  </g>
</svg>