<svg xmlns="http://www.w3.org/2000/svg" viewBox="0 0 580 420">
  <defs>
    <clipPath id="a">
      <path fill="none" d="M578 420H.46V0H582l-4 420z"/>
    </clipPath>
  </defs>
  <g clip-path="url(#a)" data-name="Layer 4" style="isolation:isolate">
    <path fill="#0e0e19" d="M362.54 202.24c-12.67-30.19 20.45-50 16.88-78.07-1.29-10.16-17.93-39.75-9.56-61.29 4.82-12.4 26.21-22.61 43.72-15.6 16 6.4 26.11 24.2 28.87 46.58 2.31 18.76 17.39 28.85 23.65 41.1s5.54 26.5 5.54 26.5c25.15 23.55 5.19 53.88-8 64.26-11.31 8.93-77.64 32.28-101.1-23.48z"/>
    <path fill="#414042" d="M240.37 223.1s10.71-11.53 23.69-10.71 17.94 2.68 18.94 4.33 1.65 8.65 1.65 8.65z"/>
    <path fill="#e6c4aa" d="M367.33 170c6.94-7.57 22.75-27.54 34.44-21.12 6.58 3.61 11.28 19.35-7 34.63s-40.5 28.28-57.82 32.82c-17.51 4.59-71.36-.38-71.36-.38s-15.3 3.48-17.54 3.79c-3.09.62-4-1.85-1.32-3.23 2.36-1.2 9.11-5.15 14.91-7.59 1.93-.81 3.25-1.67 5.46-1.72a5.35 5.35 0 0 1 2.84.69 41.65 41.65 0 0 1 5.57 3c8.68 5.6 50-4.33 59.07-7.67 6.62-2.46 25.82-25.66 32.75-33.22z"/>
    <path fill="none" stroke="#231f20" stroke-width="5.355" stroke-miterlimit="10" d="M215.53 184.41l-41.6 10.94V43.56l41.6 9.04v131.81z"/>
    <path fill="#83b242" d="M255 50.6c-.12.16-12.18 14.16-14.28 14.69-.28.07-.88-.31-.88-.65 0-2.15 10.43-17.42 10.55-17.58.52-.69 5.13 2.86 4.61 3.54zm8.81 59.61c-.15 0-13.64-1-14.89-2.36a1.17 1.17 0 0 1 0-1.09c1.25-1.3 14.75-2.36 14.9-2.36.62 0 .62 5.81-.01 5.81zm-5.5 57.33c-.16-.1-13.84-10.32-14.42-12.31-.08-.26.27-.89.58-.92 2-.22 16.87 8.28 17 8.38.7.43-2.47 5.31-3.16 4.85z"/>
    <path fill="#f59391" d="M397.62 269.35s-74.24 15.25-82.38 17.57c-10.29 2.93-18.34 11.25-15 26.84 5.07 23.35 53.93 98.36 53.93 98.36l4.15-2.2-30.8-91.22 78.25-35.48z"/>
    <path fill="#414042" d="M447.94 328.21s-4.58-145.62-4.08-152.82c1-14.6 13.24-19 17.66-6.11 3.55 10.36-3.4 158.26-3.4 158.26z"/>
    <path fill="#414042" d="M341.72 319.52l116.35-1.02v9.85L350 330.05l-8.28-10.53"/>
    <path fill="#7ccbb7" d="M442.09 192.68c4.86 34.87 4 79.44 4 79.44l-50.5-.82s-16.18-66.2-15.65-86.92c.62-24.1 8.87-37.09 8.87-37.09l25.58-6.56s22.44 14.27 27.7 51.95z"/>
    <path fill="#414042" d="M-4.42 228.82h327.65v14.72H-4.42z"/>
    <path fill="#edd6c4" d="M387 179.44c8.37-7.73 21.66-23 32.95-17.54 6.35 3.05 10.89 16.36-6.75 29.27S362.66 221.6 358 222.9c-13.39 3.71-62.56 1.87-62.56 1.87s-26 1.25-27 .61c-1.76-2.07-2.82-4-.07-5.71s7.31-3.29 14.06-5.95c2.55-1 4.4-1.85 6.26-1.93s8.32 4.25 11.28 5.33c4.65 1.7 49.49-7.74 51.9-7.81 2.74-.09 27.13-22.46 35.13-29.87z"/>
    <path fill="#f9b1a7" d="M446 262s.57 21.23-1.76 36.6c-2 13.18-15.73 19.76-23.89 20.39-15.48 1.19-89.56 1.44-89.56 1.44l-13 97.68-6.41.31s-11.84-75.91-5-110.74c1.5-7.58 6.21-12.23 11.51-13.8 13.69-4.07 78-18.3 78-18.3l-.63-6.06z"/>
    <path fill="#c1e2da" d="M-1.19 281.49h150.86v139.55H-1.19z"/>
    <path fill="none" stroke="#83b241" stroke-width=".94363795" stroke-miterlimit="10" d="M7.48 290.54h133.51v38.47H7.48zm0 43h133.51v38.47H7.48zm0 43h133.51v38.47H7.48z"/>
    <path fill="#414042" d="M276.1 423.5h-4.32l-8.04-186.03h19.16l-6.8 186.03"/>
    <path fill="#231f20" d="M195.76 223.16h-4.52l.21-31.11 4.94-1.29-.63 32.4"/>
    <path fill="#231f20" d="M174.82 221.81h40.37v7.11h-40.37z"/>
    <path fill="#414042" d="M400.27 326.71h7.4v96.19h-7.4z"/>
    <path fill="#83b241" d="M54.16 313.73h40.15v7.3H54.16zm0 43.8h40.15v7.3H54.16zm0 43.8h40.15v7.3H54.16zm92.3-322.58l-17.1-29.93 7.33-6.1 26.87 16.48 34.2 1.23-51.3 49.47V78.75"/>
    <path fill="none" stroke="#83b241" stroke-width="4.59" stroke-miterlimit="10" d="M138.52 56.08l-78.78 76.95 80.2 78.6"/>
    <path fill="#83b241" d="M101.41 228.37s10.65-22.76 40.59-20.77 39.43 21.4 39.43 21.4z"/>
    <path fill="#231f20" d="M229.37 229.37l-.46-7.42 85.07 3.27-.39 4.06-84.22.09"/>
    <path fill="#edd6c4" d="M392.15 129.3s3.14 11.71 2 13.54-1.85 2.62-5 4.54c0 0 7 12.67 27.35-5a11.84 11.84 0 0 1-4.94-3.48c-2.34-2.7-2.24-13.89-2.24-13.89z"/>
    <path fill="#c69397" d="M409.34 125.28l.69 7.66-15.37 14.12-2.87-2.17s2.5-1.17 2.56-3.39-2.19-12.2-2.19-12.2 17.62-3.69 17.18-4.02z" style="mix-blend-mode:multiply" opacity=".5"/>
    <path fill="#588986" d="M388.47 149.09a10.88 10.88 0 0 0 7.23 3.69 22.11 22.11 0 0 0 8.31-.69 28.67 28.67 0 0 0 7.81-3.12 13.65 13.65 0 0 0 5.71-6c.14-.39.57-.32.44.15a13.55 13.55 0 0 1-5.6 6.67 26.1 26.1 0 0 1-8.06 3.45 20.81 20.81 0 0 1-8.78.54 11 11 0 0 1-7.46-4.47c-.26-.39.15-.56.4-.22z"/>
    <path fill="#f7a7ab" d="M391.58 144.68c.3 0 3.21 3 10 2.17s12.73-6.12 12.73-6.12l3.55 2.47s-1.64 6.45-13.85 9.52-16-4.25-16-4.25z"/>
    <path fill="#4c7c79" d="M391.34 151.41a13.89 13.89 0 0 1 2.88-4.8s.53.25.52.31a22.84 22.84 0 0 1-1.2 2.55 22.84 22.84 0 0 1-1.68 2.25 1.09 1.09 0 0 1-.52-.31zm7.04 2.21a26.89 26.89 0 0 1-.16-3.05 26.89 26.89 0 0 1 .41-3 1 1 0 0 1 .61 0 26.89 26.89 0 0 1 .16 3.05 26.89 26.89 0 0 1-.41 3 1 1 0 0 1-.61 0zm8.57-1.92a21.25 21.25 0 0 1-1.34-2.36 21.25 21.25 0 0 1-.82-2.59 1.13 1.13 0 0 1 .56-.24 21.25 21.25 0 0 1 1.34 2.36 21.25 21.25 0 0 1 .82 2.59 1.13 1.13 0 0 1-.56.24zm7.71-4.56a11.48 11.48 0 0 1-3.62-3.57s.38-.46.43-.43a11.48 11.48 0 0 1 3.62 3.57 1.19 1.19 0 0 1-.43.43z"/>
    <path fill="#588986" d="M414.15 141a23.38 23.38 0 0 1-4.68 3.79 18.76 18.76 0 0 1-5.61 2.38 17 17 0 0 1-6.1.28 11.59 11.59 0 0 1-5.61-2.27c-.13-.08 0-.17-.1-.3s.2-.19.34-.1a12.15 12.15 0 0 0 5.48 1.64 19.33 19.33 0 0 0 5.71-.47 27.4 27.4 0 0 0 10.24-5.31.24.24 0 1 1 .33.36z"/>
    <path fill="#02b186" d="M62.31 195.5h23.48v32.75H62.31z"/>
    <path fill="#f59391" d="M347.57 404.93c-6 5.32-9.37 15.58-9.37 15.58l20.08-10.77-3.71-9.41s-2.26.42-7 4.6z"/>
    <path fill="#f9b1a7" d="M311.07 410.51c-7.74 2-15.29 9.61-15.29 9.61l22.71-.41.87-10.1s-2.2-.66-8.29.9z"/>
    <path fill="none" stroke="#02b186" stroke-width="3.825" stroke-miterlimit="10" d="M63.55 205s-9.06-.21-9.06 7c0 7.62 8.86 7.62 8.86 7.62"/>
    <path fill="#edd6c4" d="M422 163.43s-51.59 50-57.15 57.15c0 0 40-22.25 50.36-31a40.15 40.15 0 0 0 8.57-9.77 15.1 15.1 0 0 0 1.94-7.46c-.06-3.79-1.97-7.68-3.72-8.92z" style="mix-blend-mode:multiply" opacity=".5"/>
    <path fill="#f9b1a7" d="M446.06 272.12l-.11-10-15.86 2.27-54.71 55.14s30.82 2.92 50.44-2.62a31.05 31.05 0 0 0 14.42-9.68 20.9 20.9 0 0 0 3.6-7.52c2.26-9.71 2.22-27.59 2.22-27.59z" style="mix-blend-mode:multiply" opacity=".35"/>
    <path fill="#83b241" d="M526.33 250.68c-12.85-1.88-50.85-20.36-21.34-38.51 32.13-19.77-26.36-31.31-10.3-64.26 8.49-17.41 26.77 3.71 35-5.35 12.52-13.77-12.69-39.06 18.87-48.14a28 28 0 0 1 5.07 0c31.75 9.05 6.39 34.39 18.93 48.18 8.24 9.06 26.53-12.05 35 5.35 16.06 33-42.43 44.49-10.3 64.26 29.51 18.16-8.36 38-21.34 38.51.08-.04-27.74 3.15-49.59-.04z"/>
    <path fill="#83b241" d="M535 256.85c-12.85-1.88-50.85-20.36-21.34-38.51 32.13-19.77-26.36-31.31-10.3-64.26 8.49-17.41 26.78 3.71 35-5.36 12.52-13.77-12.69-39.06 18.87-48.14a28 28 0 0 1 5.07 0c31.75 9.05 6.39 34.39 18.93 48.18 8.24 9.06 30.53-12.05 39 5.36 16.07 33-46.43 44.49-14.3 64.26 29.51 18.16-8.36 38-21.34 38.51.01-.04-27.76 3.11-49.59-.04z" style="mix-blend-mode:multiply" opacity=".5"/>
    <path fill="#fff" stroke="#82b140" stroke-width="2.295" d="M551.95 243.67V116m.2 40.14l-9.47-11.12" style="mix-blend-mode:multiply" stroke-linecap="round"/>
    <path fill="#fff" stroke="#82b140" stroke-width="1.03275" d="M552.36 214.63l-9.47-11.12" stroke-linecap="round"/>
    <path fill="#fff" stroke="#82b140" stroke-width="2.295" d="M551.95 181.88c1.24 0 19.77-18.12 19.77-18.12m-19.36 67.56c1.24 0 19.77-18.12 19.77-18.12" style="mix-blend-mode:multiply" stroke-linecap="round"/>
    <path fill="#82b140" d="M557.32 242.57l-3.11 71.95-4.01-.31v-71.67l7.12.03"/>
    <path fill="#83b241" d="M492.31 260.28c-12.57-52.31 25.54-65.92 41.3-61.35 13.13 3.8 39.48 13.35 46.74 56.79 6.52 39-6 68.45-19 73-8.35 2.93-54.91-9.62-69.04-68.44z"/>
    <path fill="#dfecbf" d="M498.16 256.64c-12.57-52.31 25.54-65.92 41.3-61.35 13.13 3.8 39.48 13.35 46.74 56.79 6.52 39-6 68.45-19 73-8.37 2.92-54.91-9.62-69.04-68.44z" style="mix-blend-mode:multiply"/>
    <path fill="#fff" stroke="#82b140" stroke-width="2.295" d="M556.54 328.73l-39.17-124.1m31.56 14.83L536 263.57m32.87 10.19l-16.89 40.01m-47.16-82.14l25.48 14.83m-24.72 21.68l38.79 22.05" style="mix-blend-mode:multiply" stroke-linecap="round"/>
    <path fill="#0da37c" d="M497.09 422.59l-14.64-108.51h98.43v110.23l-83.79-1.72"/>
    <path fill="#83b241" d="M487.17 345.01h94.39v7.41h-94.39z"/>
    <circle cx="316.33" cy="64.86" r="33.93" fill="#e6e7e8" style="mix-blend-mode:multiply"/>
    <circle cx="316.33" cy="58.58" r="33.93" fill="#fff" stroke="#82b140" stroke-width="3.06"/>
    <path fill="none" stroke="#82b140" stroke-width="1.03726819" d="M315.82 38.05v20.53l14.03 14.03" stroke-linecap="round"/>
    <circle cx="316.33" cy="88.33" r=".77" fill="#82b140"/>
    <circle cx="316.33" cy="28.33" r=".77" fill="#82b140"/>
    <circle cx="286.71" cy="58.33" r=".77" fill="#82b140"/>
    <circle cx="346.71" cy="58.33" r=".77" fill="#82b140"/>
    <circle cx="337.65" cy="79.81" r=".77" fill="#82b140" transform="rotate(-45 337.65 79.81)"/>
    <circle cx="295.23" cy="37.38" r=".77" fill="#82b140" transform="rotate(-45 295.233 37.38)"/>
    <circle cx="295.49" cy="79.54" r=".77" fill="#82b140" transform="rotate(-45 295.488 79.545)"/>
    <circle cx="337.92" cy="37.12" r=".77" fill="#82b140" transform="rotate(-45 337.924 37.117)"/>
    <circle cx="337.65" cy="79.81" r=".77" fill="#82b140" transform="rotate(-45 337.65 79.81)"/>
    <circle cx="295.23" cy="37.38" r=".77" fill="#82b140" transform="rotate(-45 295.233 37.38)"/>
    <circle cx="295.49" cy="79.54" r=".77" fill="#82b140" transform="rotate(-45 295.488 79.545)"/>
    <circle cx="337.92" cy="37.12" r=".77" fill="#82b140" transform="rotate(-45 337.924 37.117)"/>
    <path fill="#edd6c4" d="M370.94 78.28c-2.82 12.61-3.92 30.15 4.37 47.63 1.74 3.68 5.37 11.42 11.65 12.12 7.54.84 17.88-5.28 22.59-11.77 7.28-10 9.15-23.52 9.15-23.52L378 64.58l-3.76 9-1.19 2.42"/>
    <path fill="#b97288" d="M379.45 116a4.71 4.71 0 0 1-2.84 1.17 2.74 2.74 0 0 1-1.57-.5 4.21 4.21 0 0 1-1.09-1.18 6.21 6.21 0 0 1-1-3 17.22 17.22 0 0 1 .08-3c.2-2 .54-3.9.81-5.82l.74-5.79q1.52-11.63 3.45-23.2c.1-.6.55-.55.48.06q-1.16 11.67-2.64 23.28c-.27 1.93-.48 3.88-.79 5.83s-.69 3.86-1 5.76-.44 3.82.51 5.4a2.47 2.47 0 0 0 1.95 1.44 4.21 4.21 0 0 0 2.51-.87c.63-.3.95.07.4.42z"/>
    <path fill="#6c384d" d="M385.34 91.88A6.29 6.29 0 0 0 385 91a1.68 1.68 0 0 0-.19-.3c-.1-.12-.23-.07-.22 0 0-.07 0-.15-.17-.14 0 0-.53.06-.91.82a8.69 8.69 0 0 0-.75 3.19 25.94 25.94 0 0 0 0 4.26 13.75 13.75 0 0 0 .37 2.16 5.65 5.65 0 0 0 .35 1 1.79 1.79 0 0 0 .63.82.58.58 0 0 0 .56 0 1.21 1.21 0 0 0 .39-.44 10 10 0 0 0 .42-.94 10.75 10.75 0 0 0 .55-2.11 15.61 15.61 0 0 0 0-4.28 16.34 16.34 0 0 0-.69-3.16zm-13.68-.97a6.66 6.66 0 0 0-.31-.85 1.67 1.67 0 0 0-.16-.29c-.08-.11-.19-.07-.18 0 0-.07 0-.14-.15-.14a2.57 2.57 0 0 0-.72 2 68.38 68.38 0 0 0 0 9 1.72 1.72 0 0 0 .53.79.42.42 0 0 0 .47 0 1.13 1.13 0 0 0 .32-.43c.12-.29.24-.59.34-.9a11.78 11.78 0 0 0 .44-2 17.53 17.53 0 0 0 0-4.12 18 18 0 0 0-.58-3.06z"/>
    <path fill="#385665" d="M386.06 121.84v.32a4.69 4.69 0 0 1-.13.8 3.81 3.81 0 0 1-1 1.95 2.94 2.94 0 0 1-1 .61 3.12 3.12 0 0 1-1.17.14 3.07 3.07 0 0 1-1.18-.33c-.08 0 .2-.67.23-.68h.19a3 3 0 0 0 .64-.06 2.53 2.53 0 0 0 1.27-.72 7 7 0 0 0 1.43-2.2 1.44 1.44 0 0 1 .72.17z"/>
    <path fill="#6c384d" d="M389.69 91.65l-.24-.42c-.16-.26-.34-.63-.61-1a12.89 12.89 0 0 0-1.84-2.3 5.67 5.67 0 0 0-2.31-1.52 3.51 3.51 0 0 0-1.07-.17 2.23 2.23 0 0 0-.43 0c-.06 0-.31-.57-.18-.63a3.83 3.83 0 0 1 1.87-.17 5.46 5.46 0 0 1 3 1.56 9 9 0 0 1 1.79 2.74 10.54 10.54 0 0 1 .45 1.16l.16.47c0 .15-.51.35-.59.28z"/>
    <path fill="#0e0e19" d="M376.62 61.22a68.68 68.68 0 0 0 17.83 33.91c13.55 14 29.16 11.71 29.16 11.71"/>
    <path fill="#83b241" d="M415.58 91.79s0-15.84-10.79-28C394.31 52 382.29 52.53 378.38 53l5.74-4.13 7.12-3.21s9.64-2.3 19.29 9.18c7 8.34 8.21 15.4 7.58 26.87a23.62 23.62 0 0 1-2.53 10.08z"/>
    <path fill="#6c384d" d="M368.26 86.31l.17-.22a3.84 3.84 0 0 1 .47-.52 3.69 3.69 0 0 1 1.63-1 3.24 3.24 0 0 1 1.93.19 3.11 3.11 0 0 1 .89.56c.06.06-.33.54-.37.54l-.22-.07a3.33 3.33 0 0 0-.56-.11 4 4 0 0 0-1.38.12 5.51 5.51 0 0 0-1.36.49 4.45 4.45 0 0 0-.53.3l-.22.13c-.07.04-.46-.34-.45-.41z"/>
    <path fill="#0e0e19" d="M367.36 82.83l.69-.76a7.72 7.72 0 0 0 .73-.87c.26-.35.56-.71.85-1.14a37.25 37.25 0 0 0 3.22-5.87 66.71 66.71 0 0 0 2.62-6.35c.72-2 1.14-3.64 1.14-3.64.06-.2 1.14 0 1.13.27a37.58 37.58 0 0 1-.67 4 34.89 34.89 0 0 1-2.25 7 24.11 24.11 0 0 1-3.95 6c-.37.41-.75.75-1.07 1.08a7.67 7.67 0 0 1-.91.79l-.85.66c-.23-.07-.79-1-.68-1.17z"/>
    <path fill="#c69397" d="M418.48 105.69c-32.22-5-40.84-41.42-40.84-41.42-2.63 9.85-5.29 11.82-5.51 12.49 0 0-3.22 6.57-2.63 7.38.3 0 6.28-4.84 7-13.16 0 0 13.15 40.33 40.86 40.11.12 0-.19.37.45-.68.82-1.34.67-4.72.67-4.72z" style="mix-blend-mode:multiply" opacity=".5"/>
    <path fill="none" stroke="#d6e9e5" stroke-width="1.00195596" stroke-miterlimit="10" d="M458.64 32.49h25.31v6.75h-25.31zm28.24 0h25.31v6.75h-25.31zm-14.14-9.28h25.31v6.75h-25.31zm0 18.99h25.31v6.75h-25.31zm-14.86 9.29h25.31v6.75h-25.31zm27.8 58.38h25.31v6.75h-25.31zm-301.2-90.82h25.31v6.75h-25.31zm9.88 9.27h25.31v6.75h-25.31zm-.78 250.7h25.31v6.75h-25.31zm28.24 0h25.31v6.75h-25.31zm-14.14-9.29h25.31v6.75h-25.31zm0 18.99h25.31v6.75h-25.31zm-14.86 9.29h25.31v6.75h-25.31zm27.8 58.39h25.31v6.75h-25.31z" style="mix-blend-mode:multiply"/>
    <path fill="#d6e9e5" d="M148.78 321.41l-105.87 99.9 106.37-1.21-.5-98.69" style="mix-blend-mode:multiply" opacity=".5"/>
    <path fill="#82b140" d="M165.27 59.42l-18.9 17.76-.05 32.91 50.88-49.64-31.93-1.03" style="mix-blend-mode:multiply" opacity=".34"/>
    <path fill="#02b186" d="M578.97 341.23l-84.86 80.07 85.26-.97-.4-79.1M85.49 206.33l-22.8 21.51 22.91-.26-.11-21.25" style="mix-blend-mode:multiply" opacity=".65"/>
    <path fill="#c4a17b" d="M76.05 192.19l.18-1a10.25 10.25 0 0 0 0-2.51 8.4 8.4 0 0 0-1-3c-.52-1-1.21-2-1.7-3a8.74 8.74 0 0 1-.61-1.73 9.07 9.07 0 0 1-.17-1.95 10.81 10.81 0 0 1 .73-3.63 11.37 11.37 0 0 1 2-3.38c.18-.18.84.42.75.59a8.72 8.72 0 0 0-.52.88 11.89 11.89 0 0 0-.93 2.36 8.59 8.59 0 0 0 .4 6.07c.4.86 1 1.86 1.56 3a9.25 9.25 0 0 1 .86 3.63 10.71 10.71 0 0 1-.34 2.81l-.26 1.12c-.17.19-.94-.04-.95-.26zm-5.47-.1l.18-1a10.25 10.25 0 0 0 0-2.51 8.39 8.39 0 0 0-1-3c-.52-1-1.21-2-1.7-3a8.74 8.74 0 0 1-.61-1.73 9.07 9.07 0 0 1-.17-1.95 10.81 10.81 0 0 1 .72-3.6 11.37 11.37 0 0 1 2-3.38c.18-.18.84.42.75.59a8.72 8.72 0 0 0-.52.88 11.89 11.89 0 0 0-.93 2.36 8.59 8.59 0 0 0 .4 6.07c.4.86 1 1.86 1.56 3a9.25 9.25 0 0 1 .86 3.63 10.71 10.71 0 0 1-.34 2.81l-.33 1.07c-.1.21-.86-.02-.87-.24z" opacity=".3"/>
    <path fill="#fff" d="M197.76 60.43l124.98 168.26-186.05-.92 9.77-117.87 51.3-49.47" opacity=".5"/>
    <path fill="#7ccbb7" d="M430.19 264.3l15.71-16.68.15 14.42-15.86 2.26" style="mix-blend-mode:multiply" opacity=".4"/>
    <path fill="#ececec" d="M350.48 58.79a33.38 33.38 0 0 1-61.06 18.66c7.87-10.16 33.76-39.4 41.86-48.89a33.38 33.38 0 0 1 19.2 30.23z" style="mix-blend-mode:multiply" opacity=".35"/>
    <path fill="#f8ecb1" d="M180.21 77.4s4.46 7.82-1.32 13.35S165 92 165 92z"/>
  </g>
</svg>