<svg xmlns="http://www.w3.org/2000/svg" viewBox="0 0 580 420">
  <defs>
    <clipPath id="a">
      <path fill="none" d="M0 1h579.94v418.84H0z"/>
    </clipPath>
  </defs>
  <g clip-path="url(#a)" data-name="Layer 2" style="isolation:isolate">
    <path fill="#d39d44" d="M524.46 263.57s8.93-5.35 10.06-6.37c-1.13-7.26 6.69-14.45 5.25-18.3-2-5.32-5-9.36-2-10.35s5.45 0 8.47 4.37a12.45 12.45 0 0 1 2.18 9.94s8.38-2.61 12 .43c2.54 2.16 8.65 16.75 5.28 20.73s-14.55 9.77-22.39 7.47a36.84 36.84 0 0 0-11.31 5.18z"/>
    <path fill="#e39b59" d="M563.93 258.09c1.11-.91 2.1-2.4 1.55-5.16a2.29 2.29 0 0 0-2.28-1.84 3.43 3.43 0 0 0 .41-.22c1.73-1.18 1.71-4.06.5-6.36a4.68 4.68 0 0 0-4.1-2.8 2.2 2.2 0 0 0 .15-2.38c-1.21-1.93-8 3-10.29 3.3-1.31.14 1.81-1.94-.62-.62-.44.24-.8-2.37-1.28-2.08-3.1 1.88-6.37 5.23-6.7 6.77s.82 3.17 3.15 2.64a6.8 6.8 0 0 0 .75-.24 5.41 5.41 0 0 0-1.61 1.79c-1.65 2.32-.14 5.39 3 5.68a3.36 3.36 0 0 0 .84-.07c-1.76 1.29-2.31 2.67-1.8 4a4.14 4.14 0 0 0 4.17 2.42c-1.52.65-2.91 1.57-2.31 2.89 1 2.16 4.73 3.15 7.61 2.39s6.72-2.74 8-4.1c2.71-2.94 1.99-5.8.86-6.01z" style="mix-blend-mode:multiply" opacity=".75"/>
    <path fill="#d39d44" d="M558 236.54a18.79 18.79 0 0 0-7 2.88c-3.1 1.88-6.37 5.23-6.7 6.77a3 3 0 0 0 3.7 3.2c2.34-.53 13.52-6.31 14.3-6.78 1.18-.72 1.33-3.06.87-3.79-1.17-1.93-2.81-2.54-5.17-2.28z"/>
    <path fill="#d39d44" d="M561.45 242.36s-9.78 4.8-10.83 5.38c-3 1.66-2.66 1.48-3.9 2.93a3.15 3.15 0 0 0 2.66 4.89 24.1 24.1 0 0 0 6.28-.82c1.72-.5 9.18-3.49 10.76-5a4.56 4.56 0 0 0 .77-5.64 4.1 4.1 0 0 0-5.74-1.74z"/>
    <path fill="#d39d44" d="M551.55 255.28c-2.64 1.49-3.53 3.15-2.93 4.73.69 1.83 4.13 2.91 6.14 2.7s9.45-2.9 10.79-3.67a5.75 5.75 0 0 0 3-6.62c-.42-2.1-3.17-2.88-4.79-2.36s-10.27 4.12-12.21 5.22z"/>
    <path fill="#d39d44" d="M558.3 261.17s-2.19.64-3 .95c-1.59.6-4.08 1.64-3.1 3.76s5.45 2.35 8.34 1.58a10.34 10.34 0 0 0 5.53-3.24c3-3.2 1.89-6.28.62-6s-8.39 2.95-8.39 2.95z"/>
    <path fill="#8b5e3c" d="M562.68 242.32s-1 .72-2.46 1.58a52.6 52.6 0 0 1-4.73 2.5c-1.47.68-3.39 1.45-5 2s-2.76.94-2.76.94c-.17 0-.29-.34-.14-.4 0 0 1.16-.46 2.68-1.12s3.38-1.5 4.84-2.18 3.32-1.53 4.77-2.3 2.53-1.39 2.53-1.39c.21-.05.4.26.27.37zm3.06 8.24l-.67.41c-.42.26-1 .6-1.71 1a36.25 36.25 0 0 1-4.62 2 37.11 37.11 0 0 1-4.87 1.33c-1.54.31-2.72.43-2.72.43-.17 0-.21-.39-.06-.42s1.15-.21 2.64-.62 3.32-1 4.74-1.5 3.21-1.19 4.62-1.83c.7-.32 1.32-.61 1.75-.84l.7-.35c.15-.02.33.29.2.39zm1.33 7.77l-.58.36c-.36.23-.89.51-1.48.84a30.87 30.87 0 0 1-4 1.73 35.47 35.47 0 0 1-4.22 1.13c-1.33.27-2.35.4-2.35.4s-.19-.35-.07-.39 1-.21 2.28-.57 2.88-.87 4.11-1.29 2.79-1 4-1.53c.6-.28 1.14-.52 1.51-.72l.6-.3c.13.01.31.25.2.34z" opacity=".5"/>
    <path fill="#784334" d="M152.65 396.93c-3.7-15.49-53.54-56.59-34.89-120.79 1.62-4.81 6.76-19.51 8.21-23.5 5-13.8 7.73-23.7 2.07-30.86s-14.11-3.09-14.11-3.09a67.23 67.23 0 0 0-5.17 6.63c-9.69 14.29-23.8 52.08-21.84 95.1 1.79 39.07 52.66 68.32 57.08 79m-2.33-202.49a8.68 8.68 0 0 0 2.44-2.6c1.74-3.06-1.66-22.83-1.66-22.83l24.26-5.37s1.85 16.5 5.83 20.82c.82.89 3 1.67 5.5 2.36-2.86 2.82-9.09 8.7-18.1 10.62s-14.94-1.38-18.27-3z"/>
    <path fill="#a57758" d="M166.82 168l-21.75 35.87-6.67-4.05s6.13-3.81 6.23-7.48c.11-4.28-1.75-20.48-1.75-20.48s24.68-3.35 23.94-3.86z" style="mix-blend-mode:multiply" opacity=".5"/>
    <path fill="#231f20" d="M133.77 167.45s-13 5.24-21.79-.18a18.68 18.68 0 0 1-8.9-13.86s-14.17 1.67-19.68-11.05 0-18.84 0-18.84-13.57-7-13.51-20.32c0-10.44 9-16.9 9-16.9s-6.9-14-.94-23.19c7.25-11.23 18.28-9.37 18.28-9.37s-.51-12.8 8.49-18.83c10.05-6.74 20.49-1 20.49-1s6.13-11.73 18-12.47c10.41-.65 18.13 9.73 18.13 9.73a19.8 19.8 0 0 1 21.28-3.11c8.42 3.62 9.53 16.46 9.53 16.46s12.72-.42 17.45 8.26c5.23 9.61.12 20.85.12 20.85s9.9 4.94 10.16 16.14c.23 10.06-9.06 16.68-9.06 16.68s6.18 5.09 3.89 16.22c-2.53 12.28-14.29 14.8-14.29 14.8s.13 9.4-4.66 14.64c-6.64 7.27-15.86 7.64-19.47 6.75-9.06-2.22-42.52 8.59-42.52 8.59z"/>
    <path fill="#784334" d="M192 106.61s.71 16.25-3.32 27.45c-3.93 10.91-9.41 21.86-21 33.16-12.58 12.24-22.74 10.34-40.75-3.35-21.14-16.07-27-56.43-27-56.43s-.59-20.65 14.43-30.07 38.54-16.13 53.47-11.07 21.83 21.15 22.93 26 1.24 14.31 1.24 14.31z"/>
    <path fill="#231f20" d="M176 104.28l-.31-.71-.34-.78c-.14-.29-.34-.58-.53-.91l-.29-.5c-.11-.16-.24-.31-.36-.47a6.9 6.9 0 0 0-.78-.93 8.9 8.9 0 0 0-1.78-1.44 9.27 9.27 0 0 0-4.41-1.35 11.72 11.72 0 0 0-1.88.06c-.47.06-.74.12-.74.12s-.39-.69-.22-.76a10.36 10.36 0 0 1 2.83-.57 9.47 9.47 0 0 1 2.7.2c.23.06.47.09.69.17l.66.24a7 7 0 0 1 1.18.59 8.26 8.26 0 0 1 2 1.81 7.34 7.34 0 0 1 .8 1.14c.12.19.25.38.34.57l.26.58c.16.38.33.73.44 1.05l.25.87.22.78c.01.19-.63.37-.73.24zm-45.83.47l-.73.24-.81.26c-.3.11-.61.28-1 .43l-.52.24c-.17.09-.34.21-.51.31a6.88 6.88 0 0 0-1 .68 8.9 8.9 0 0 0-1.61 1.62 9.27 9.27 0 0 0-1.79 4.25 11.7 11.7 0 0 0-.13 1.87v.75s-.72.32-.78.14a10.35 10.35 0 0 1-.28-2.87 9.46 9.46 0 0 1 .47-2.66c.08-.22.14-.45.24-.67l.31-.63a7 7 0 0 1 .71-1.12 8.25 8.25 0 0 1 2-1.84 7.32 7.32 0 0 1 1.22-.68c.21-.1.4-.21.6-.29l.6-.2c.39-.12.76-.26 1.09-.34l.89-.16.8-.14c.25.06.37.72.23.81z"/>
    <path fill="#231f20" d="M192.36 104.54c-18-7-28.42-32-28.42-32s-5.41 18.46-16.63 24-18.67 2.92-18.67 2.92-5.34 15.68-14.59 20.91-11.41 4.3-11.41 4.3-11.38-25.13-7.8-28 34.84-35.42 54.94-33.85 41.48 13.27 44.9 22.18-2.32 19.54-2.32 19.54z"/>
    <path fill="#a57758" d="M192 108.42c-18-7-28.42-32-28.42-32s-5.41 18.46-16.63 24-18.67 2.92-18.67 2.92-5.38 15.66-14.63 20.87-11.41 4.3-11.41 4.3-11.38-25.13-7.8-28 34.85-35.51 54.95-33.9S190.86 80 194.27 88.86 192 108.42 192 108.42z" style="mix-blend-mode:multiply" opacity=".5"/>
    <path fill="#0d0d0d" d="M165.38 104.7a7.54 7.54 0 0 1 .41-1.25 2.25 2.25 0 0 1 .21-.45c.14-.18.35-.16.36-.06 0-.09 0-.2.26-.23a2.13 2.13 0 0 1 1.66.84 9.72 9.72 0 0 1 1.9 4 27.65 27.65 0 0 1 .88 5.59A15 15 0 0 1 171 116a6.58 6.58 0 0 1-.36 1.4 2.52 2.52 0 0 1-.86 1.24 1.17 1.17 0 0 1-.92.18 1.77 1.77 0 0 1-.73-.48 12.19 12.19 0 0 1-.88-1.12 12.07 12.07 0 0 1-1.33-2.62 16.67 16.67 0 0 1-1-5.59 18.11 18.11 0 0 1 .46-4.31zm-37.44 11.06c-.33-3.74.53-5.7 1.21-5.89.66-.81 2.72.77 3.64 2.87a16.92 16.92 0 0 1 1.14 3.45 22.65 22.65 0 0 1 .61 5.36 11.36 11.36 0 0 1-.35 2.79 3.35 3.35 0 0 1-.67 1.31 1.18 1.18 0 0 1-.78.4 1.12 1.12 0 0 1-.82-.28 7.09 7.09 0 0 1-1.55-2.2c-.41-.8-.78-1.66-1.12-2.52s-.63-1.75-.89-2.62a7.61 7.61 0 0 1-.42-2.67z"/>
    <path fill="#3c2415" d="M148.47 138.94a6.14 6.14 0 0 0 2.34.91c7.71-.45 6.2-12 3.31-21 0 0-8.83-30.51-11.9-41.43 0 .95-.11 1.13-.18 2 2.44 10.44 10.71 39.8 10.71 39.8s2.72 8.68 2.51 13.18-2.17 5.12-3.18 5.84a2.93 2.93 0 0 1-3.36.12c-.72-.43-1.04.04-.25.58z" style="mix-blend-mode:multiply" opacity=".5"/>
    <path fill="#82b140" d="M99 104.32c-.12-.74-.23-9.53.36-12.14S112 59.24 137.09 55.32c25.3-4 38.44 10.84 44.83 17.89a34.51 34.51 0 0 1 9 19s-10.37-10-20.66-14.63c-11.15-5.07-19.48-5.5-28-3.67s-14.43 4.27-26 12.13C108.06 91.55 99 104.32 99 104.32z"/>
    <path fill="#7f1617" d="M158.48 152.48a11.2 11.2 0 0 1-1.45 1.74 7.37 7.37 0 0 1-8 1.75 8.6 8.6 0 0 1-2.05-1.05c-.13-.1.46-1 .55-1a9.56 9.56 0 0 0 1.91.43 10.93 10.93 0 0 0 6.58-1.44 14.39 14.39 0 0 0 1.62-1.17c.14-.03.88.6.84.74z" style="mix-blend-mode:multiply"/>
    <path fill="#fcb017" d="M141.75 197.41c-4.75 3.51-15.07 10.42-15 10.48a104.68 104.68 0 0 0-15.67 14.59s2.43-.2 5.51 17.88a147.55 147.55 0 0 1 1.86 34.52l25.27 122 98.68-1.49-22.45-142.49c-10-31-6.73-48.91-6.73-48.91-19.54-12.42-33.91-14.19-36.57-14.76a33.77 33.77 0 0 1-17.19 10.52 23.64 23.64 0 0 1-17.71-2.34z"/>
    <path fill="#407874" d="M140.72 209.34s-5.79 1.58-9.57 2.38-9.72 1.65-9.72 1.65c-.21 0-.35-.71-.16-.77 0 0 5.79-1.58 9.57-2.38s9.72-1.65 9.72-1.65c.21.03.34.68.16.77zm57.5-12.05s-5.79 1.58-9.57 2.38-9.72 1.65-9.72 1.65c-.21 0-.35-.71-.16-.77 0 0 5.79-1.58 9.57-2.38s9.72-1.65 9.72-1.65c.21.03.34.68.16.77zm12.05 7.21s-29.5 6.37-48.54 10.24-48.73 9.47-48.73 9.47c-1 .19-1.15-.59-.17-.81 0 0 29.5-6.37 48.54-10.24s48.69-9.47 48.69-9.47c1.07-.13 1.19.56.21.81zm-.35 8.36s-28.66 6.17-47.16 9.91-47.31 9.14-47.31 9.14c-1 .18-1.12-.6-.16-.81 0 0 28.66-6.17 47.16-9.91s47.3-9.19 47.3-9.19c1-.07 1.12.61.17.86zm1.08 9.49s-28.66 6.17-47.16 9.91-47.31 9.14-47.31 9.14c-1 .18-1.12-.6-.16-.81 0 0 28.66-6.17 47.16-9.91s47.31-9.14 47.31-9.14c1.03-.12 1.16.57.16.81zm3.32 10.27s-29.5 6.37-48.54 10.24-48.69 9.47-48.69 9.47c-1 .19-1.15-.59-.17-.81 0 0 29.5-6.37 48.54-10.24s48.69-9.47 48.69-9.47c1.03-.13 1.15.56.17.81zM214 241s-28.66 6.17-47.16 9.91-47.35 9.09-47.35 9.09c-1 .18-1.12-.6-.16-.81 0 0 28.66-6.17 47.16-9.91s47.31-9.14 47.31-9.14c1-.14 1.12.59.2.86zm1.09 9.48s-28.66 6.17-47.16 9.91-47.31 9.14-47.31 9.14c-1 .18-1.12-.6-.16-.81 0 0 28.66-6.17 47.16-9.91s47.31-9.14 47.31-9.14c.99-.13 1.07.56.16.81zm3.77 8.84s-29.5 6.37-48.54 10.24-48.69 9.44-48.69 9.44c-1 .19-1.15-.59-.17-.81 0 0 29.5-6.37 48.54-10.24s48.69-9.47 48.69-9.47c1.04-.1 1.16.58.17.84zm-.35 8.36s-28.66 6.17-47.16 9.91-47.35 9.14-47.35 9.14c-1 .18-1.12-.6-.16-.81 0 0 28.66-6.17 47.16-9.91s47.31-9.14 47.31-9.14c1.04-.13 1.16.56.2.81zm1.13 9.49s-28.66 6.17-47.16 9.91-47.31 9.14-47.31 9.14c-1 .18-1.12-.6-.16-.81 0 0 28.66-6.17 47.16-9.91s47.31-9.14 47.31-9.14c.99-.12 1.11.56.16.81zm1.45 11.23s-28.37 5.61-46.68 9-46.82 8.22-46.82 8.22c-1 .16-1.09-.62-.15-.82 0 0 28.37-5.61 46.68-9s46.82-8.22 46.82-8.22c.99-.09 1.06.59.15.82zm15.91 81s-28.37 5.61-46.68 9-46.82 8.22-46.82 8.22c-1 .16-1.09-.62-.15-.82 0 0 28.37-5.61 46.68-9s46.82-8.22 46.82-8.22c.97-.1 1.08.59.15.82zm1.83 8.6s-28.37 5.61-46.68 9-46.82 8.22-46.82 8.22c-1 .16-1.09-.62-.15-.82 0 0 28.37-5.61 46.68-9s46.82-8.22 46.82-8.22c.99-.08 1.1.6.15.82zm3.07 8.32s-28.37 5.61-46.68 9-46.82 8.22-46.82 8.22c-1 .16-1.09-.62-.15-.82 0 0 28.37-5.61 46.68-9s46.82-8.22 46.82-8.22c.99-.1 1.1.59.15.82zm-19.34-90.52s-28.66 6.2-47.16 9.9-47.31 9.14-47.31 9.14c-1 .18-1.12-.6-.16-.81 0 0 28.66-6.17 47.16-9.91S222.4 295 222.4 295c1-.14 1.12.55.16.8zm1.12 9.49s-28.66 6.17-47.16 9.91-47.31 9.14-47.31 9.14c-1 .18-1.12-.6-.16-.81 0 0 28.66-6.17 47.16-9.91s47.31-9.14 47.31-9.14c1-.12 1.12.52.16.81zm5.32 9.25s-29.5 6.37-48.54 10.24-48.69 9.47-48.69 9.47c-1 .19-1.15-.59-.17-.81 0 0 29.5-6.37 48.54-10.24s48.69-9.47 48.69-9.47c1.05-.13 1.17.55.17.81zm-.34 8.36s-28.66 6.17-47.16 9.91-47.31 9.19-47.31 9.19c-1 .18-1.12-.6-.16-.81 0 0 28.66-6.17 47.16-9.91s47.31-9.14 47.31-9.14c1-.14 1.12.51.16.76zm1.12 9.49s-28.66 6.17-47.16 9.91-47.31 9.14-47.31 9.14c-1 .18-1.12-.6-.16-.81 0 0 28.66-6.17 47.16-9.91s47.31-9.14 47.31-9.14c1-.12 1.12.57.16.81zm3.28 10.27s-29.5 6.37-48.54 10.24-48.69 9.47-48.69 9.47c-1 .19-1.15-.59-.17-.81 0 0 29.5-6.37 48.54-10.24s48.69-9.47 48.69-9.47c1.03-.13 1.11.56.17.81zm-.35 8.34s-28.66 6.17-47.16 9.91-47.31 9.14-47.31 9.14c-1 .18-1.12-.6-.16-.81 0 0 28.66-6.17 47.16-9.91s47.31-9.14 47.31-9.14c.99-.1 1.12.58.16.81zm1.12 9.51s-28.66 6.17-47.16 9.91-47.31 9.14-47.31 9.14c-1 .18-1.12-.6-.16-.81 0 0 28.66-6.17 47.16-9.91s47.31-9.14 47.31-9.14c1-.12 1.12.57.16.81z"/>
    <path fill="#407874" d="M137.09 201.65a20.92 20.92 0 0 0 11.77 7.12 29 29 0 0 0 13.84-.84 54.46 54.46 0 0 0 6.66-2.39c.55-.21 1.07-.49 1.6-.75l1.59-.78 1.53-.89.76-.44.73-.49a27 27 0 0 0 5.35-4.55 17.6 17.6 0 0 0 3.68-5.94c.11-.34.28-.48.43-.47s.25.25.15.63a17.74 17.74 0 0 1-3.47 6.44 26.63 26.63 0 0 1-5.37 5c-.25.18-.49.37-.74.54l-.78.49-1.56 1-1.62.85c-.54.28-1.08.58-1.64.81a49.54 49.54 0 0 1-6.85 2.54 28.47 28.47 0 0 1-14.6.64 20.82 20.82 0 0 1-12-8.11c-.42-.76.1-1 .54-.41z"/>
    <path fill="#407874" d="M176.39 190.14a38.46 38.46 0 0 1-7.4 6.2 30.59 30.59 0 0 1-8.88 4 27.67 27.67 0 0 1-9.74.73 18.74 18.74 0 0 1-9.09-3.32c-.21-.13-.13-.25-.2-.41s.28-.26.5-.12a19.47 19.47 0 0 0 8.9 2.51 30.65 30.65 0 0 0 9.22-1 35.14 35.14 0 0 0 8.57-3.63 48.82 48.82 0 0 0 7.68-5.46c.39-.3.78.11.44.5z"/>
    <path fill="#784334" d="M295.12 248.05c.7-1.41 1.08-2.56.89-3.23a26.91 26.91 0 0 0-3.3-7.5c-4.91-7.14-12.46-12.23-8.86-15.36 2.76-2.4 6.18 6 9.47 4 1.67-1 1.25-3.47 1.4-7.93.44-13.11.73-19.08 3.43-19.11 3.49 0 1.73 16.89 4.87 17.26 2.92.34 2.78-21.55 7.06-19.68 3.28 1.43.25 21.69 1.95 22.49 2.38 1.12 2.85-14.36 6-12.42 2.93 1.81 1.1 13-.34 19.07-3.1 13.13-9.67 24.91-10.85 27.23-5.05 1.94-10.14-2.65-11.72-4.82z"/>
    <path fill="#784334" d="M273.06 299.34c-30.47 4.77-62.87-47-77.86-72.39 0 0-10.28-11.77-.45-20.87s22.16-3.28 30.6 11.9c4.32 7.77 30.4 60.72 47 56.59 9.72-2.42 16.65-13.74 22.4-25.75 6.24-13 18-10.12 13 2.48-9.01 22.7-23.27 46.25-34.69 48.04z"/>
    <path fill="#407874" d="M199 197.52s-5.85 1.51-9.67 2.26-9.81 1.53-9.81 1.53c-.21 0-.34-.72-.15-.78 0 0 5.85-1.51 9.67-2.26s9.81-1.53 9.81-1.53c.26.03.39.69.15.78z"/>
    <path fill="#da874c" d="M258.33 205s1.19 7.7-2 10-15.44 6.32-15.44 6.32 19.4 11.43 32.06 10.76 26.12-6.36 36.41-15.41c0 0-10.29-2.34-11.08-3.35s-3.56-11.05-3.56-11.05z"/>
    <path fill="#a57758" d="M296.43 208.92L256 225.38l-10.22-6.28s11.56-2.41 12.32-6.51a25.09 25.09 0 0 0 .2-7.6l36-4.24z" style="mix-blend-mode:multiply" opacity=".5"/>
    <path fill="#da874c" d="M239.46 100.54s-14.69 64.91-3.32 88.13c5.61 11.46 25.35 23.81 41.22 22.66s38.74-11.75 42.64-23.14c5.91-17.22 1.42-47.38 1.42-47.38l-5.8-42.4-16.7-8.53z"/>
    <path fill="#c9a262" d="M252.25 133.21c-3.64.36-10.19-.09-9.23 1.68.24.44.24 3 2.75 4.27 2.23 1.16 6.75-.22 8.62-.35 2.49-.18 5.88-1.05 6.52-2.31 1.09-2.22-5.02-3.65-8.66-3.29zm38.38-4c-5.77.18-6.71 8-3 8.34 1.54.15 9.41 1.69 11.91.8s3.64-3.91 2.49-4.8-5.63-4.55-11.4-4.34z" style="mix-blend-mode:multiply" opacity=".75"/>
    <path fill="#421e17" d="M285.05 173a7 7 0 0 1-.67.58 8.81 8.81 0 0 1-2.32 1.35 6.65 6.65 0 0 1-4.7 0 9.19 9.19 0 0 1-3.88-2.91 9.64 9.64 0 0 1-1.75-4.27 29.64 29.64 0 0 1-.44-4.53 72.73 72.73 0 0 1 .42-8.62c1.13-10.4 5.38-51.61 5.38-51.61.07-.56 1.23-.5 1.22 0 0 0-2.14 27.66-2.65 34.06-.32 5.35-1 12.44-1.59 17.63-.27 2.59-.55 5.54-.6 8.5s.08 6 1.57 8.19a7.5 7.5 0 0 0 3.07 2.54 4.59 4.59 0 0 0 3.32.08 7.92 7.92 0 0 0 2-1.08 6.65 6.65 0 0 0 .64-.51c.6-.33 1.43.09.98.6zm-26.24-29.26a3.3 3.3 0 0 0-.75-1.11 1.83 1.83 0 0 0-.44-.3c-.23-.07-.33 0-.35.09 0-.1 0-.2-.29-.22h-.15a1.24 1.24 0 0 0-.4.11 2.65 2.65 0 0 0-1 .92 11.75 11.75 0 0 0-1.58 4 21.41 21.41 0 0 0-.62 5.44 6.92 6.92 0 0 0 .66 2.82 3.77 3.77 0 0 0 2.24 1.87 3.28 3.28 0 0 0 .76.16 1.5 1.5 0 0 0 .89-.23 2.87 2.87 0 0 0 1-1.19 9.74 9.74 0 0 0 .81-2.75 23 23 0 0 0 .18-5.46 13.08 13.08 0 0 0-.96-4.15zm38.84 3.51a12.24 12.24 0 0 0-.91-4.09 2.92 2.92 0 0 0-.79-1.07 1.47 1.47 0 0 0-.46-.27c-.23 0-.33 0-.34.12 0-.1-.07-.19-.3-.19a1.63 1.63 0 0 0-.52.17 3 3 0 0 0-1 .92 10.9 10.9 0 0 0-1.59 3.92 24.79 24.79 0 0 0-.49 5.36 8 8 0 0 0 .53 2.78 2.73 2.73 0 0 0 4.93.45 7.15 7.15 0 0 0 .84-2.73 30.31 30.31 0 0 0 .1-5.37z"/>
    <path fill="#231f20" d="M253 129.27c-4.27.42-9.1 1.27-10 3.43-.64 1.5 1.89 4.52 2.81 4.86 2.76 1 7.27-.27 9.46-.42 2.92-.21 8.63-1.24 7.9-4-1.17-4.29-5.91-4.29-10.17-3.87zm36.68-.71c-3.58 0-4.13 7.1.26 7.52 1.8.17 11 2 14 .94s4-6 2.64-7-10.13-1.46-16.9-1.46z"/>
    <path fill="#231f20" d="M332.56 97.23c-3.93-10.89-11.14-3.75-18-7.58-7.64-4.26-.36-22.15-24.87-23.57-21-1.22-36.48 30.2-62.54 15.52-3.55 5.21-3.9 21.2 4.26 29.85 20.14 21.32 55.43-15.87 70.12-16.11 9.25-.15 13.11 12.65 12.32 22.27-1.78 21.68-4 38.85 5 41.22 5.18 1.36 4.42-13.38 5.45-27.72.92-13.27 13.47-19.43 8.26-33.88z"/>
    <path fill="#c9a262" d="M323.56 134.3c-1 14.34-.27 29.08-5.45 27.72-9-2.37-6.75-19.54-5-41.22.79-9.61-3.07-22.42-12.32-22.27-13.77.22-44.59 33.28-65.11 19.8l1.39-7.84L302.48 87l16.7 12.79z" style="mix-blend-mode:multiply" opacity=".75"/>
    <path fill="#713a2d" d="M288.41 185.59a19.36 19.36 0 0 1-3.19 2.2 15.7 15.7 0 0 1-7.09 2.12 14.17 14.17 0 0 1-7.17-2 16.31 16.31 0 0 1-3.13-2.32c-.17-.18.9-.3 1.07-.21a18.48 18.48 0 0 0 3.17 1.64 15.51 15.51 0 0 0 6.18 1.2 18.28 18.28 0 0 0 6.24-1.32 23.1 23.1 0 0 0 3.26-1.55c.25-.03.8.04.66.24z"/>
    <path fill="#d39d44" d="M388.73 182.12s.39 7.37-2.32 9.39-12.83 5-12.83 5 14.71 12 24.9 12.17 21.39-4.41 30.29-12.34c0 0-8.07-2.85-8.63-3.85s-2-10.68-2-10.68z"/>
    <path fill="#e39b59" d="M418.59 184.78l-33.19 16.5-7.73-6.57s9.44-1.57 10.34-5.41a28.1 28.1 0 0 0 .72-7.18z" style="mix-blend-mode:multiply" opacity=".5"/>
    <path fill="#d39d44" d="M378 53.65s-14.88 52.54-16.15 57.4c0 0 45 17.2 69 11.64 16.08-3.72 17.75-31.34 17.75-31.34l1.61-35.51z"/>
    <path fill="#e39b59" d="M388.6 74.4c-3.22.09-7.84 1-7.13 2.75.18.44.34 2.11 1 2.45 2 1 5.93.25 7.58.25 2.2 0 5.23-.6 5.89-1.75 1.16-2.03-4.11-3.79-7.34-3.7zm29.2 1.39c-5.08-.22-5.56 4.05-2.3 4.64 1.34.24 8.14 2.24 10.39 1.56s3.48-3.45 2.54-4.37-5.55-1.62-10.63-1.83z" style="mix-blend-mode:multiply" opacity=".5"/>
    <path fill="#92573f" d="M408.59 102.14l-.12.13a4.11 4.11 0 0 1-.36.37 4.79 4.79 0 0 1-2.29 1.36 3.66 3.66 0 0 1-.78.07 3.17 3.17 0 0 1-1.65-.51 6.79 6.79 0 0 1-2.35-2.89 11.19 11.19 0 0 1-.85-4 38.34 38.34 0 0 1 0-4.21c.18-2.8.53-5.55.89-8 .79-4.79 1.65-10.89 2.43-15.8l1.4-8.66a.4.4 0 0 1 .8.1l-1 8.68c-.59 4.93-1.27 11.1-2.05 15.87-.36 2.39-.76 5.1-1 7.83a39.48 39.48 0 0 0-.15 4 10.21 10.21 0 0 0 .6 3.61 5.79 5.79 0 0 0 1.84 2.5 2.23 2.23 0 0 0 2.18.24 5 5 0 0 0 1.41-.9 3.61 3.61 0 0 0 .34-.32l.12-.12c.4-.2.92.23.59.65z"/>
    <path fill="#0e1e37" d="M392.16 86.85a3.15 3.15 0 0 0-.57-1.1 1.6 1.6 0 0 0-.36-.32c-.2-.08-.29 0-.32.06 0-.09 0-.19-.24-.23h-.13a1 1 0 0 0-.36.08 2.39 2.39 0 0 0-1 .8 11.67 11.67 0 0 0-1.68 3.67 21.86 21.86 0 0 0-.94 5.11 7 7 0 0 0 .37 2.72 3.39 3.39 0 0 0 1.83 1.93 2.7 2.7 0 0 0 .66.2 1.25 1.25 0 0 0 .8-.15 2.69 2.69 0 0 0 1-1.06 9.8 9.8 0 0 0 .91-2.55 23.51 23.51 0 0 0 .56-5.16 13.24 13.24 0 0 0-.53-4zm29.12 5.36a12.4 12.4 0 0 0-.5-3.94 2.77 2.77 0 0 0-.61-1.07 1.27 1.27 0 0 0-.39-.29c-.2-.06-.29 0-.31.09 0-.09 0-.19-.25-.2a1.36 1.36 0 0 0-.47.13 2.7 2.7 0 0 0-.94.8 10.81 10.81 0 0 0-1.68 3.61 25.34 25.34 0 0 0-.82 5 8.12 8.12 0 0 0 .26 2.67 2.44 2.44 0 0 0 1.89 1.86 2.35 2.35 0 0 0 2.41-1.1 7.18 7.18 0 0 0 .94-2.52 31 31 0 0 0 .47-5.04z"/>
    <path fill="#e39b59" d="M368.7 86.88s1.08.59 3-3.94c2.92-6.75 5.41-17.85 10.6-20.84 5.67-3.26 23.1 1.38 58.72-.47 1.67-.09-4.06-1.61-2.38-1.73.75-.05-48.69-8.2-61.38-3.32-2.35 8.95-8.56 30.3-8.56 30.3z" style="mix-blend-mode:multiply" opacity=".5"/>
    <path fill="#44425e" d="M365.23 12.29c-12.55 9.18-14.11 36.81 6.69 42 21.49 5.38 53.41 5.24 60.17 5.31s13.17 4.65 12.91 13.65-2.07 32.77-7.84 37.29-15 6.18-29.14 5.76c-11.69-.34-23.13-.77-44.34-12.33 0 0-10.82 26.14-6.89 45.39s14.39 35 44.7 36.61c32.81 1.77 45.11-16.51 49.84-25.17s5.18-26.22 3.46-44.85-4.69-38.71.32-45.09 8.08-10 6.77-16.4-7.86-7.71-13.61-7.82c-7.09-.13-14.18-.42-24.91-6C410.92 34.22 402 18.92 394 13.15c-8.3-6.05-20.23-7.15-28.77-.86z"/>
    <path fill="#48c1c1" d="M379.14 194.26s-30.9 8.78-54.81 42.47c-16.28 22.93-24.81 66.56-27.62 90.58s34.53-36.52 45.23-51.33l-12.67 127.36L442 409.16l7.11-147.49S465.55 306 483.59 306c21 0 53.32-30.76 53.32-30.76l-7.69-15.69s-30 15.69-39.47 15.69c-3.31 0-21.36-38.17-27.07-52.08-6.56-16-36.37-27.89-36.37-27.89s-11.29 10-20 10.58-17.58-3.51-27.17-11.59z"/>
    <path fill="#d37c71" d="M379.3 194s8.56 9.85 21.92 9.87 20.64-10.27 20.64-10.27l10.65 3.92s-9.75 10-16.72 12.72a37.21 37.21 0 0 1-21.64 2.05c-7.66-1.61-15.65-4.42-24.2-14.22z"/>
    <path fill="#44425e" d="M390.26 72.78c-3.22.09-7.84 1-7.13 2.75.18.44.34 2.11 1 2.45 2 1 5.93.25 7.58.25 2.2 0 5.23-.6 5.89-1.75 1.16-2.03-4.12-3.79-7.34-3.7zm29.38 1.84c-5.08-.22-5.56 4.05-2.3 4.64 1.34.24 8.14 2.24 10.39 1.56s3.48-3.45 2.54-4.37-5.55-1.61-10.63-1.83z"/>
    <path fill="none" stroke="#82b140" stroke-width=".98095488" d="M236.87 403.89l21.26-44.54h70.73l21.26 44.54H236.87z"/>
    <path fill="#82b140" stroke="#83b241" stroke-width=".76374624" stroke-miterlimit="10" d="M61.86 379a26.52 26.52 0 0 0 9.63-2.06A16.37 16.37 0 0 0 82 361.14a15.08 15.08 0 0 0-4.44-11.08c-5.83-5.7-15.09-5.66-16.12-5.64l.17 7.89c1.91 0 7.53.52 10.46 3.41a7.2 7.2 0 0 1 2 5.42c0 4.16-1.81 6.87-5.69 8.54a19 19 0 0 1-6.52 1.41V379z"/>
    <path fill="#fff" stroke="#83b241" stroke-width="1.89685544" d="M63.74 390.81H20.92v-59.72h42.82z"/>
    <path fill="#82b140" stroke="#83b241" stroke-width=".76374624" stroke-miterlimit="10" d="M63.22 390.11H20.48v-59.72h42.74z"/>
    <path fill="#da874c" d="M261.19 209.24s1.09 7.08-1.82 9.24-14.19 5.81-14.19 5.81 17.83 10.51 29.47 9.89 24-5.85 33.46-14.16c0 0-9.46-2.15-10.18-3.08s-3.27-10.16-3.27-10.16z"/>
    <path fill="#a57758" d="M296.2 212.86L259.07 228l-9.39-5.77s10.62-2.22 11.32-6a23.06 23.06 0 0 0 .19-7l33.06-3.89z" style="mix-blend-mode:multiply" opacity=".5"/>
    <path fill="#6a9334" d="M389.94 306.59c-9.14-24.82-20-49.58-27.43-60.09-11.1-15.68-57.3-27.41-57.3-27.41s-21.09 19.23-26.64 18.91c-5.88-.33-15.61-9.26-27.25-16.34 0 0-46.23 12.42-56 30.05-6.33 11.4-19.6 38.54-25.47 54.87l37.88 20.9a247.77 247.77 0 0 1 8.37-24.17l-4.25 114.19L355 413.82l-3.69-99s3.65-3 8 8z"/>
    <path fill="#0f355b" d="M281 238.17c8.44-5.67 24.33-12.9 24.33-12.9l14 4.25s-12.63 22.75-17.2 30.92c-5.25-10.26-12.21-16.4-15.27-18.31zM246.24 224s-13.88 4.05-13.06 4.9c9.47 9.8 15.57 28.64 16.33 29.39.26.26 7.53-11.6 16.25-18.94 1.55-1.31 3-3.86 4.15-3.59z" style="mix-blend-mode:multiply" opacity=".5"/>
    <path fill="#336384" d="M293.87 295.09v7.32h.95l2.92-.1 9.19-.26 11.63-.28 11.16-.22-.2-4.06-.09-2v-.71l-24.11.09h-11.14c-.94 0-.91-.75 0-.78l11.09-.26 25.49-.5.55 9.74h-.65c-15.51.24-35.19.32-37.64.27l.08-8.18c.07-1 .73-.98.77-.07z"/>
    <path fill="#336384" d="M294.92 301.78l36-.53.09 5.07.09 7.3.15 18.22v.81H294.2l-.65-29.41c0-1.37.72-1.34.78 0l.92 28.34h1.41l3.1-.05 8.81-.11 21.15-.17v-28.68l-34.81.11c-1.33-.18-1.32-.84.01-.9z"/>
    <path fill="#0f355b" d="M165.9 305.28l7.4-10.88 39.63 19.59-5.23 13.5-41.8-22.21"/>
    <path fill="#336384" d="M166.88 305.37l12.58 6.54 27.86 14.58v-.08l.42-1.12 1.07-2.79 2.57-6.66.46-1.18.1-.25L187.32 302l-9.62-4.87-3.07-1.57-1-.49-.23-.14-6.71 9.8c-.71 1-1.3.56-.65-.44l7.07-10.47 5 2.38 9.71 4.69 12.52 6.11 13.54 6.64-1 2.71-4.75 12.16L179 312.82l-12.47-6.76c-1.06-.65-.73-1.22.35-.69z"/>
    <path fill="#0f355b" d="M348.87 326.97l-4.87-10.8 43.11-21.34 4.12 11.02-42.36 21.12"/>
    <path fill="#336384" d="M349.51 326.22l12.65-6.44 28.19-14.27-.07-.18-.4-1.06-1-2.67-2.14-5.67-13.14 6.46-13.6 6.55-10.73 5.19-3.43 1.64-1 .49-.27.11 4.3 9.61c.49 1.13-.2 1.4-.71.32l-4.72-10.3c2.59-1.38 25.68-13.08 43.32-21.81l.76-.38 4.61 12.42-29.52 14.47-12.76 6.22c-1.12.47-1.39-.12-.34-.7z"/>
    <path fill="#0f355b" d="M250.48 221.68s-13.88 4.05-13.06 4.9c9.47 9.8 15.57 28.64 16.33 29.39.26.26 7.18-13.72 17.31-18.94 2-1.05 6.86 1.31 6.86 1.31l7.84-3.27s10.12 4.9 17 18.29c4.57-8.16 17-30 17-30l-14-4.25s-21.8 19.27-27.76 19.27c-4.57 0-27.43-16.66-27.43-16.66"/>
    <path fill="#336384" d="M252.13 222.39l3.4 2.38c2.26 1.56 5.64 3.9 10.21 6.81 2.29 1.45 4.87 3.06 7.83 4.6.74.38 1.51.75 2.3 1.08a5 5 0 0 0 2.37.53 9.21 9.21 0 0 0 2.52-.84c.85-.4 1.7-.87 2.55-1.37a108.15 108.15 0 0 0 10.54-7.47q2.74-2.15 5.59-4.52l2.89-2.43 1.46-1.26 1.73-1.51-.32.27.27-.24h.28l.38.11 3.08.91 11.51 3.45-7.26 13L303 254.38a5.61 5.61 0 0 1-.31.52l-.3-.55-.61-1.11-.8-1.46c-.39-.74-.87-1.43-1.3-2.16a49.29 49.29 0 0 0-3-4.11 44.05 44.05 0 0 0-6.88-6.84 33.73 33.73 0 0 0-3.57-2.47l-.59-.34-.13.05-.46.19-1.74.72-5.49 2.25-.46-.22-.28-.13-.47-.2-1-.37a15 15 0 0 0-1.94-.56 5.68 5.68 0 0 0-1.85-.14 1.75 1.75 0 0 0-.38.09l-.17.06a2.27 2.27 0 0 0-.21.11c-.3.15-.59.32-.88.49a30.92 30.92 0 0 0-6.18 4.93 65.54 65.54 0 0 0-9 11.92l-.35.57a5 5 0 0 1-.43.62 1 1 0 0 1-.22.2.53.53 0 0 1-.21 0h-.16v.08l-.2-.11-.1-.05s-.06-.1-.09-.14l-.17-.31-.34-.63a3.15 3.15 0 0 1-.14-.32l-.08-.2-.17-.41-1.29-3.18q-1.28-3.12-2.58-6a96.31 96.31 0 0 0-5.34-10.17 47.09 47.09 0 0 0-5.57-7.55 5.32 5.32 0 0 1-.51-.62.93.93 0 0 1-.11-.3.58.58 0 0 1 .11-.32 1.72 1.72 0 0 1 .55-.47l.32-.18.23-.11c.6-.29 1.19-.51 1.74-.73 1.12-.42 2.14-.77 3.07-1.08 1.85-.61 3.28-1 4.25-1.34l1.48-.44c2.3-.67 2.42.07.23.75l-1.47.46c-1 .3-2.39.76-4.22 1.38-.91.31-1.93.67-3 1.09-.54.21-1.11.44-1.67.71l-.21.1-.1.06a.93.93 0 0 0-.17.12s-.05.05 0 .09 0 .05.06.08l.14.15a47.86 47.86 0 0 1 5.74 7.65 96.77 96.77 0 0 1 5.51 10.3q1.33 2.87 2.64 6l1.31 3.17.28.68c0 .06.06.13.09.19s.09 0 .12-.06l.17-.28a66.47 66.47 0 0 1 9.13-12.19 32.12 32.12 0 0 1 6.42-5.16c.3-.18.61-.36.93-.52.08 0 .14-.08.25-.13l.32-.12a3 3 0 0 1 .63-.15 6.9 6.9 0 0 1 2.3.14 16.33 16.33 0 0 1 2.12.6q.52.18 1 .39l.51.21.23.1 4.91-2.08 1.73-.73.46-.19.33-.14a2.07 2.07 0 0 1 .45-.16c.71.35.88.47 1.22.66a34.77 34.77 0 0 1 3.74 2.56 45.09 45.09 0 0 1 7.14 7.05 50.28 50.28 0 0 1 3.06 4.24c.45.75.94 1.46 1.35 2.22l.42.77 9.44-16.64 4.14-7.28 1.61-2.81.66-1.14.08-.14-9.88-3-3-.91h-.09l-2.71 2.32-2.91 2.43q-2.88 2.37-5.64 4.52a108.45 108.45 0 0 1-10.7 7.49c-.88.51-1.75 1-2.65 1.4a10.08 10.08 0 0 1-2.84.91 3.74 3.74 0 0 1-1.54-.15 11.92 11.92 0 0 1-1.32-.47c-.84-.35-1.62-.74-2.38-1.13-3-1.6-5.58-3.23-7.87-4.7-4.57-3-7.93-5.33-10.19-6.92l-3.32-2.65c-1.87-1.42-1.46-1.93.45-.61z"/>
    <path fill="#336384" d="M279.94 254.68a1.73 1.73 0 0 0-.18-.58 1.88 1.88 0 0 0-1-1 1.77 1.77 0 0 0-1.65.23 1.74 1.74 0 0 0 0 2.79 1.77 1.77 0 0 0 1.65.23 1.88 1.88 0 0 0 1-.95 1.73 1.73 0 0 0 .18-.58c0-.12.76-.15.78 0a1.32 1.32 0 0 1 0 .23 2.62 2.62 0 0 1-.12.63 2.84 2.84 0 0 1-1.4 1.67 3 3 0 0 1-2.89-.1 3 3 0 0 1 0-5.12 3 3 0 0 1 2.89-.1 2.83 2.83 0 0 1 1.4 1.67 2.62 2.62 0 0 1 .12.63 1.32 1.32 0 0 1 0 .23c-.07.27-.72.23-.78.12zM277.07 307a1.73 1.73 0 0 0 .59.14 1.88 1.88 0 0 0 1.34-.43 1.77 1.77 0 0 0 .63-1.55 1.74 1.74 0 0 0-2.42-1.39 1.77 1.77 0 0 0-1 1.31 1.88 1.88 0 0 0 .3 1.38 1.73 1.73 0 0 0 .41.44c.09.08-.26.73-.42.66a1.32 1.32 0 0 1-.2-.12 2.62 2.62 0 0 1-.49-.42 2.83 2.83 0 0 1-.75-2.05 3 3 0 0 1 1.53-2.45 3 3 0 0 1 4.44 2.56 3 3 0 0 1-1.36 2.55 2.83 2.83 0 0 1-2.15.38 2.62 2.62 0 0 1-.6-.21 1.31 1.31 0 0 1-.2-.11c-.13-.12.23-.69.35-.69zm3.93 51.84a1.73 1.73 0 0 0-.35-.5 1.88 1.88 0 0 0-1.29-.58 1.77 1.77 0 0 0-1.5.73 1.74 1.74 0 0 0 .86 2.65 1.77 1.77 0 0 0 1.64-.29 1.88 1.88 0 0 0 .7-1.23 1.73 1.73 0 0 0 0-.61c0-.12.68-.37.75-.21a1.3 1.3 0 0 1 .07.22 2.62 2.62 0 0 1 .08.63 2.83 2.83 0 0 1-.82 2 3 3 0 0 1-2.78.8 3 3 0 0 1-1.58-4.87 3 3 0 0 1 2.72-1 2.83 2.83 0 0 1 1.85 1.16 2.62 2.62 0 0 1 .3.56 1.32 1.32 0 0 1 .07.22c-.02.24-.66.41-.72.32z"/>
    <path fill="#d39d44" d="M410.93 125.12s-1.77 6.08-7 5.92c-4.61-.31-5.13-6.87-5.13-6.87s.48-.63.58-.56a10.68 10.68 0 0 0 1.79 1.19 8.59 8.59 0 0 0 3.58 1 10.13 10.13 0 0 0 3.74-.56 13.28 13.28 0 0 0 2-.84c.14.05.51.6.44.72z"/>
    <path fill="#09b186" d="M-1.74 390.62h583.8v29.53H-1.74z"/>
    <path fill="#44425e" d="M490.02833254 299.73778168l4.83285327-.92191607 9.97055978 52.26750464-4.83285327.92191607z"/>
    <path fill="#fbb040" d="M534.791073 300.14011663l4.79639952 1.09587934L527.735493 353.1092519l-4.79639954-1.09587933z"/>
    <path fill="#784334" d="M501.24536562 298.00300873l4.88933816-.54842715 5.93126188 52.87839098-4.88933816.54842715z"/>
    <path fill="#82b140" d="M491.9 347.07h47.37l-6.11 48.86-35.21.46-6.05-49.32"/>
    <path fill="#d1d3d4" d="M253.93 366.45l-16.54 35.64h113.25l-17.97-37.08-78.74 1.44"/>
    <path fill="#d1d3d4" d="M329.38 357.77h-70.73l-10.07 21.49h90.87l-10.07-21.49" style="mix-blend-mode:multiply"/>
    <path fill="none" d="M237.39 402.31l21.26-44.54h70.73l21.26 44.54H237.39" data-name="Fill-4"/>
    <path fill="#a7a9ac" d="M358.25 402.54a3.06 3.06 0 0 0-3.13-3.13H232.91a3.06 3.06 0 0 0-3.13 3.13v3.13h128.47z"/>
    <path fill="#d1d3d4" d="M173.38 368.07a9.51 9.51 0 0 1-9.4-9.62V204.68a9.51 9.51 0 0 1 9.4-9.62h241.05a9.51 9.51 0 0 1 9.4 9.62v153.76a9.51 9.51 0 0 1-9.4 9.62z"/>
    <path fill="#a7a9ac" d="M178.42 202.24a5.24 5.24 0 0 0-5.17 5.17v147.87a5.24 5.24 0 0 0 5.17 5.17h231a5.24 5.24 0 0 0 5.17-5.17V207.62a5.24 5.24 0 0 0-5.17-5.17h-231z"/>
    <circle cx="295.57" cy="276.6" r="10.15" fill="#bcbec0"/>
    <path fill="#82b140" d="M64.05 349.02l-43.56 41.1 43.76-.5-.2-40.6" style="mix-blend-mode:multiply" opacity=".34"/>
    <path fill="#d1d3d4" d="M424.21 262.89L311.2 369.52l113.54-1.28-.53-105.35" style="mix-blend-mode:multiply" opacity=".5"/>
    <path fill="#82b140" d="M538.96 347.38l-40.29 48.91 33.83-.93 6.46-47.98" style="mix-blend-mode:multiply" opacity=".34"/>
    <path fill="#bc9368" d="M46.19 322.07l.37-2c.05-.62.14-1.35.2-2.17a18.74 18.74 0 0 0-.11-2.67 16.17 16.17 0 0 0-1.87-5.81c-1-1.9-2.31-3.77-3.22-5.69-.24-.46-.43-1-.65-1.53s-.34-1.13-.51-1.71-.23-1.22-.27-1.83-.09-1.21-.06-1.82a20.56 20.56 0 0 1 1.31-6.84 23.08 23.08 0 0 1 2.45-4.72 16.9 16.9 0 0 1 1.29-1.71c.32-.35 1.35.59 1.16.9a16.58 16.58 0 0 0-1 1.68 22.75 22.75 0 0 0-1.85 4.52 19.75 19.75 0 0 0-.73 6.13c0 .53.1 1.05.14 1.57s.19 1 .28 1.46.27.93.46 1.37.34.88.57 1.29c.78 1.68 2 3.58 3 5.76a17.49 17.49 0 0 1 1.66 6.81 19.67 19.67 0 0 1-.15 3c-.14.89-.31 1.67-.44 2.32l-.6 2c-.26.46-1.44.1-1.43-.31zm-10.46-.21l.37-2c.05-.62.14-1.35.2-2.17a18.74 18.74 0 0 0-.11-2.67 16.17 16.17 0 0 0-1.87-5.81c-1-1.9-2.31-3.77-3.22-5.69-.24-.46-.43-1-.65-1.53s-.34-1.13-.51-1.71-.23-1.22-.27-1.83-.09-1.21-.06-1.82a20.56 20.56 0 0 1 1.32-6.84 23.08 23.08 0 0 1 2.45-4.72 16.9 16.9 0 0 1 1.29-1.71c.32-.35 1.35.59 1.16.9a16.57 16.57 0 0 0-1 1.68 22.76 22.76 0 0 0-1.83 4.57 19.75 19.75 0 0 0-.73 6.13c0 .53.1 1.05.14 1.57s.19 1 .28 1.46.27.93.46 1.37.34.88.57 1.29c.78 1.68 2 3.58 3 5.76a17.49 17.49 0 0 1 1.66 6.81 19.67 19.67 0 0 1-.15 3c-.14.89-.31 1.67-.44 2.32l-.6 2c-.29.42-1.47.06-1.46-.36z" opacity=".15"/>
  </g>
</svg>