<svg xmlns="http://www.w3.org/2000/svg" data-name="Layer 1" viewBox="0 0 1500 300">
  <path fill="#227BF6" d="M1532.47 318c-110.95 13.05-112.18-8-223.89-8s-111.71 8-223.42 8-111.71-8-223.42-8-111.74 8-223.44 8-111.71-8-223.43-8-111.72 8-223.44 8-112 5.08-223-8c-13.05-1.54-4.47-9.17-4.47-22.31s8-13.14 8-26.28-8-13.14-8-26.28 8-13.14 8-26.28-8-13.14-8-26.29 8-13.14 8-26.29-17.48-28.71-4.43-30.27c110.95-13 112.18 8 223.9 8s111.71-8 223.42-8 111.71 8 223.42 8 111.73-8 223.43-8 111.71 8 223.43 8 111.72-8 223.44-8 112-5.08 223 8c13.05 1.54 4.47 9.17 4.47 22.31s-8 13.14-8 26.28 8 13.14 8 26.28-8 13.14-8 26.28 8 13.14 8 26.29-11 14.48-7.88 27.24c4.03 16.57 17.36 27.76 4.31 29.32z"/>
  <path fill="#044FB7" d="M1532.82 341c-155.33 18.28-157.22-14-313.62-14s-156.4 14-312.8 14-156.4-14-312.8-14-156.4 14-312.8 14-156.65 4.32-312-14c-18.25-2.1-7.8-11.4-7.8-29.8s14-18.4 14-36.8-14-18.4-14-36.8 14-18.4 14-36.8-26.09-41.6-7.82-43.8c155.33-18.28 157.22 14 313.62 14s156.4-14 312.8-14 156.4 14 312.8 14 156.4-14 312.8-14 156.65-4.32 312 14c18.27 2.15 7.82 11.45 7.82 29.85s-14 18.4-14 36.8 14 18.4 14 36.8-18.16 20.58-13.8 38.46c5.78 23.82 25.87 39.89 7.6 42.09z"/>
</svg>